<?xml version="1.0" encoding="iso-8859-1"?>
<!-- Generator: Adobe Illustrator 25.4.1, SVG Export Plug-In . SVG Version: 6.00 Build 0)  -->
<svg version="1.1" baseProfile="basic" xmlns="http://www.w3.org/2000/svg" xmlns:xlink="http://www.w3.org/1999/xlink" x="0px"
	 y="0px" viewBox="0 0 100 100" xml:space="preserve">
<g id="Layer_1">
	<path style="fill:#EF5B6C;stroke:#000000;stroke-width:2;stroke-miterlimit:10;" d="M30.399,87.243l-18.07-18.07
		c-2.343-2.343-2.343-6.142,0-8.485l21.976-21.976c0.186-0.186,0.488-0.186,0.674,0L60.86,64.593c0.186,0.186,0.186,0.488,0,0.674
		L38.885,87.243C36.542,89.586,32.743,89.586,30.399,87.243z"/>
	<path style="fill:#6E78AC;stroke:#000000;stroke-width:2;stroke-miterlimit:10;" d="M68.601,12.757l18.07,18.07
		c2.343,2.343,2.343,6.142,0,8.485L64.695,61.288c-0.186,0.186-0.488,0.186-0.674,0L38.14,35.407c-0.186-0.186-0.186-0.488,0-0.674
		l21.976-21.976C62.458,10.414,66.257,10.414,68.601,12.757z"/>
	<circle style="fill:#FEFDEF;stroke:#000000;stroke-width:2;stroke-miterlimit:10;" cx="64.428" cy="35.428" r="5"/>
	<circle style="fill:#FEFDEF;stroke:#000000;stroke-width:2;stroke-miterlimit:10;" cx="45" cy="65" r="5"/>
	<circle style="fill:#FEFDEF;stroke:#000000;stroke-width:2;stroke-miterlimit:10;" cx="26" cy="65" r="5"/>
	<path style="fill:none;stroke:#000000;stroke-linecap:round;stroke-miterlimit:10;" d="M15.494,67.493
		c-1.377-1.377-1.377-3.61,0-4.987l18.811-18.811"/>
	<line style="fill:none;stroke:#000000;stroke-linecap:round;stroke-miterlimit:10;" x1="20" y1="72" x2="17.501" y2="69.581"/>
	<line style="fill:none;stroke:#000000;stroke-linecap:round;stroke-miterlimit:10;" x1="23" y1="75" x2="22" y2="74"/>
	<path style="fill:none;stroke:#000000;stroke-linecap:round;stroke-miterlimit:10;" d="M55.947,65.337l-19.48,19.48
		c-1.008,1.008-2.642,1.008-3.65,0L25,77"/>
	<path style="fill:none;stroke:#000000;stroke-linecap:round;stroke-miterlimit:10;" d="M57.287,48.983L43.712,35.407
		c-0.186-0.186-0.186-0.488,0-0.674L59.98,18.465"/>
	
		<line style="fill:none;stroke:#000000;stroke-linecap:round;stroke-miterlimit:10;" x1="61.17" y1="52.866" x2="58.965" y2="50.66"/>
	<path style="fill:none;stroke:#000000;stroke-linecap:round;stroke-miterlimit:10;" d="M67,54l-2.011,2.011
		c-0.186,0.186-0.488,0.186-0.674,0l-1.109-1.109"/>
	<line style="fill:none;stroke:#000000;stroke-linecap:round;stroke-miterlimit:10;" x1="73" y1="48" x2="69" y2="52"/>
	
		<line style="fill:none;stroke:#000000;stroke-linecap:round;stroke-miterlimit:10;" x1="81.257" y1="39.743" x2="75.509" y2="45.499"/>
</g>
<g id="Layer_4">
</g>
<g id="Layer_5">
</g>
<g id="Layer_6">
</g>
<g id="Layer_7">
</g>
<g id="Layer_2">
</g>
<g id="Layer_3">
</g>
</svg>
