<?xml version="1.0" encoding="UTF-8"?>
<svg version="1.1" xmlns="http://www.w3.org/2000/svg" width="512" height="512">
<path d="M0 0 C2.38329739 1.87951095 4.59441143 3.84600687 6.796875 5.93359375 C9.0706808 8.06629458 11.43023069 10.00397962 13.875 11.9375 C17.60549827 14.89032386 21.31361639 17.86718048 25 20.875 C25.9075 21.61492188 26.815 22.35484375 27.75 23.1171875 C31.96563071 26.6448507 31.96563071 26.6448507 32.375 30.875 C32.30049171 34.02727367 32.11318211 34.84388675 30.1875 37.5 C28 39 28 39 25 39 C25 50.22 25 61.44 25 73 C26.32 73.33 27.64 73.66 29 74 C30.75 75.0625 30.75 75.0625 32 77 C32.64551623 82.08344031 32.64551623 82.08344031 32 85 C29.625 87.5 29.625 87.5 27 89 C26.34 89 25.68 89 25 89 C25 109.13 25 129.26 25 150 C26.65 150.33 28.3 150.66 30 151 C32 153 32 153 32.375 156.875 C32.30049171 160.02727367 32.11318211 160.84388675 30.1875 163.5 C28 165 28 165 25 165 C25 182.16 25 199.32 25 217 C26.65 217.33 28.3 217.66 30 218 C32.14304046 221.2145607 32.47210474 223.22928416 32.39453125 227.05859375 C32 229 32 229 29.625 231.5 C27 233 27 233 25 233 C25.03297271 235.94056614 25.10006919 238.87347963 25.1875 241.8125 C25.19330078 242.64587891 25.19910156 243.47925781 25.20507812 244.33789062 C25.28912033 246.66305835 25.4138493 248.74710784 26 251 C28.34184826 253.09928449 28.34184826 253.09928449 31 254 C32 255 32 255 32.3125 258.8125 C32.2781156 262.00451891 32.13693943 262.81111803 30.1875 265.5 C28 267 28 267 25 267 C25 275.58 25 284.16 25 293 C26.65 293.66 28.3 294.32 30 295 C32 297 32 297 32.375 300.875 C32.30049171 304.02727367 32.11318211 304.84388675 30.1875 307.5 C28 309 28 309 25 309 C25.01486218 317.42349682 25.05639654 325.84625748 25.13209057 334.26940632 C25.16639762 338.18057756 25.19147618 342.0913567 25.19555664 346.00268555 C25.19983187 349.77669 25.22822774 353.5498094 25.27343178 357.32353783 C25.28643204 358.76399774 25.29070547 360.20456345 25.28615379 361.64507484 C25.28126697 363.66100125 25.31014503 365.67692432 25.34057617 367.69262695 C25.35056892 369.41471123 25.35056892 369.41471123 25.36076355 371.17158508 C25.72455781 374.21381679 25.72455781 374.21381679 28.47871399 375.83171082 C29.31073837 376.21724625 30.14276276 376.60278168 31 377 C32 378 32 378 32.3125 381.8125 C32.2781156 385.00451891 32.13693943 385.81111803 30.1875 388.5 C28 390 28 390 25 390 C25 414.75 25 439.5 25 465 C26.65 465.33 28.3 465.66 30 466 C32.52831791 469.79247686 32.61322169 472.54949712 32 477 C30.18836733 479.67431489 29.12238923 479.95920359 26 481 C23.27020927 481.09752956 20.56604624 481.13752024 17.83613777 481.13142776 C16.98998738 481.1334804 16.14383699 481.13553303 15.27204567 481.13764787 C12.41166558 481.143342 9.55133328 481.14185765 6.69094849 481.14044189 C4.62952203 481.14302414 2.56809608 481.1460369 0.50667083 481.1494453 C-5.17768746 481.15753492 -10.86203313 481.15930595 -16.54639649 481.16004276 C-22.66919944 481.16188989 -28.79199578 481.16943543 -34.91479492 481.17617798 C-49.0100356 481.1904845 -63.10527212 481.19628936 -77.20051831 481.20086992 C-84.16304358 481.20320473 -91.12556801 481.20680722 -98.08809263 481.2105653 C-121.91307658 481.22340086 -145.73806007 481.23412063 -169.56304741 481.2375679 C-171.05894888 481.23778954 -172.55485034 481.23801132 -174.05075181 481.23823325 C-175.55029969 481.23845389 -177.04984757 481.23867438 -178.54939544 481.2388947 C-181.55783264 481.23933726 -184.56626984 481.23978437 -187.57470703 481.24023438 C-188.32062592 481.24034377 -189.06654482 481.24045316 -189.83506731 481.24056586 C-214.03098778 481.2441979 -238.22687832 481.26012347 -262.42278733 481.28342474 C-287.99355685 481.3080051 -313.56430926 481.32173988 -339.13509095 481.32293582 C-341.94053595 481.32310728 -344.74598094 481.32332271 -347.55142593 481.32357025 C-348.24222456 481.32362602 -348.93302318 481.32368179 -349.6447551 481.32373925 C-360.77464884 481.32489118 -371.90451192 481.33592515 -383.03439529 481.35045731 C-394.21491585 481.3648035 -405.39539753 481.36781682 -416.57592832 481.36001733 C-422.63620468 481.3560983 -428.69637761 481.35710131 -434.75664139 481.37107468 C-440.29947754 481.38373856 -445.84213171 481.38268263 -451.38496734 481.37048396 C-453.39504926 481.36851388 -455.40514375 481.37166529 -457.41520797 481.38032833 C-460.13851447 481.39132646 -462.86116797 481.38400034 -465.58445549 481.3719368 C-466.3726356 481.37953199 -467.16081571 481.38712718 -467.97288007 481.39495254 C-472.92979244 481.34724885 -476.42706187 480.57293813 -480 477 C-480.58913154 469.81259523 -480.58913154 469.81259523 -478.1875 466.5 C-476 465 -476 465 -473 465 C-473 440.25 -473 415.5 -473 390 C-474.65 389.67 -476.3 389.34 -478 389 C-480.41486943 386.58513057 -480.2961925 385.87292211 -480.3125 382.5625 C-480.32925781 381.78003906 -480.34601563 380.99757813 -480.36328125 380.19140625 C-479.91392045 377.48074592 -479.15823513 376.65279365 -477 375 C-476.01 374.67 -475.02 374.34 -474 374 C-473.67 343.64 -473.34 313.28 -473 282 C-474.65 281.34 -476.3 280.68 -478 280 C-480 278 -480 278 -480.375 274.125 C-480.30049171 270.97272633 -480.11318211 270.15611325 -478.1875 267.5 C-476 266 -476 266 -473 266 C-473 259.07 -473 252.14 -473 245 C-474.65 244.67 -476.3 244.34 -478 244 C-480.41486943 241.58513057 -480.2961925 240.87292211 -480.3125 237.5625 C-480.32925781 236.78003906 -480.34601563 235.99757812 -480.36328125 235.19140625 C-479.91392045 232.48074592 -479.15823513 231.65279365 -477 230 C-476.01 229.67 -475.02 229.34 -474 229 C-473.67 207.88 -473.34 186.76 -473 165 C-474.65 164.67 -476.3 164.34 -478 164 C-480.41486943 161.58513057 -480.2961925 160.87292211 -480.3125 157.5625 C-480.32925781 156.78003906 -480.34601563 155.99757812 -480.36328125 155.19140625 C-479.91392045 152.48074592 -479.15823513 151.65279365 -477 150 C-476.01 149.67 -475.02 149.34 -474 149 C-473.67 129.2 -473.34 109.4 -473 89 C-474.65 88.34 -476.3 87.68 -478 87 C-480 85 -480 85 -480.375 81.125 C-480.30049171 77.97272633 -480.11318211 77.15611325 -478.1875 74.5 C-476 73 -476 73 -473 73 C-473 55.84 -473 38.68 -473 21 C-474.65 20.67 -476.3 20.34 -478 20 C-479.97944936 17.03082597 -480.29350581 16.34297721 -480.3125 13 C-480.32925781 12.319375 -480.34601563 11.63875 -480.36328125 10.9375 C-479.87426421 8.3294091 -479.15222546 7.5457721 -477 6 C-458.76692554 0.96368549 -436.11753796 3.21557713 -419.5625 12.375 C-416.26070695 14.36054139 -416.26070695 14.36054139 -413.72265625 13.28515625 C-412.82417969 12.86105469 -411.92570312 12.43695312 -411 12 C-389.17302161 2.95163367 -370.07097408 -1.7102746 -347.31640625 7.53125 C-338.95009321 11.23647227 -331.21197317 15.66169536 -323.75 20.9375 C-323.20802979 21.31994873 -322.66605957 21.70239746 -322.10766602 22.09643555 C-319.52764999 23.97333997 -317.19613022 25.79450761 -314.98486328 28.11132812 C-310.82356302 32.43317947 -310.82356302 32.43317947 -305.34570312 34.48510742 C-302.29744418 34.40837357 -299.39153531 34.07035554 -296.375 33.625 C-294.02111151 33.3659493 -291.66693109 33.10954061 -289.3125 32.85546875 C-288.09691406 32.71028809 -286.88132812 32.56510742 -285.62890625 32.41552734 C-279.88772187 31.75813392 -274.13962719 31.32911013 -268.375 30.9375 C-267.14458984 30.84452637 -265.91417969 30.75155273 -264.64648438 30.65576172 C-255.61272381 30.02969256 -246.64677353 30.0084366 -237.59375 30.14453125 C-201.60662695 30.76293292 -201.60662695 30.76293292 -169.19970703 16.94287109 C-164.02092626 13.79830087 -158.53904089 11.36513203 -153.0184021 8.88696289 C-150.09035153 7.56844945 -147.17972349 6.21228815 -144.265625 4.86328125 C-114.89696487 -8.60399313 -114.89696487 -8.60399313 -101.43359375 -5.38671875 C-95.9108808 -3.0779603 -90.99695662 0.51650318 -86.08984375 3.90234375 C-84.56037109 4.94068359 -84.56037109 4.94068359 -83 6 C-82.43785294 6.46266266 -81.87570587 6.92532532 -81.29652405 7.40200806 C-78.45617271 9.54754669 -76.33229666 11.09694933 -72.682724 10.83137512 C-70.0610314 10.06945292 -67.60853976 9.12157943 -65.09375 8.05859375 C-64.16961304 7.70112564 -63.24547607 7.34365753 -62.29333496 6.97535706 C-59.34819342 5.82852332 -56.42487562 4.63495979 -53.5 3.4375 C-50.57174739 2.27579741 -47.63980064 1.1239356 -44.70666504 -0.02537537 C-42.88641035 -0.7426645 -41.06967108 -1.4689628 -39.25720215 -2.20570374 C-24.94229307 -7.97511655 -13.44700134 -8.62179085 0 0 Z " fill="#B77F7F" transform="translate(480,19)"/>
<path d="M0 0 C1.90516507 -0.01755791 3.81028016 -0.04187987 5.715271 -0.07305908 C8.40974754 -0.1149336 11.10318185 -0.13059113 13.79794312 -0.13967896 C15.01656036 -0.16587311 15.01656036 -0.16587311 16.25979614 -0.19259644 C19.87287292 -0.17880128 21.9994586 -0.02343858 24.96615601 2.12521362 C26.42684937 4.28610229 26.42684937 4.28610229 26.42684937 7.28610229 C29.67839649 7.26326085 32.9264445 7.18590656 36.17684937 7.09860229 C37.09723999 7.09280151 38.01763062 7.08700073 38.96591187 7.08102417 C41.5454639 6.99690834 43.91222238 6.87439573 46.42684937 6.28610229 C47.03915405 5.45465698 47.65145874 4.62321167 48.28231812 3.76657104 C50.42684937 1.28610229 50.42684937 1.28610229 52.87167358 0.82833862 C56.25720857 0.67784038 59.60135347 0.70089656 62.98934937 0.78610229 C64.26278198 0.80310181 65.5362146 0.82010132 66.84823608 0.83761597 C82.09439271 1.11370823 97.27284056 2.5550892 112.43521118 4.08688354 C114.28782689 4.27219621 116.14124871 4.44940077 117.99472046 4.62594604 C161.56098287 8.77938698 204.92262079 17.17223238 247.40731812 27.55172729 C250.14997071 28.21876311 252.89625615 28.8660724 255.64559937 29.50485229 C257.09366312 29.84798213 258.54159534 30.19166797 259.98934937 30.53610229 C261.14563843 30.80938354 262.30192749 31.08266479 263.49325562 31.36422729 C266.84197386 32.4165542 269.91110638 33.77035931 272.42684937 36.28610229 C273.0159809 43.47350707 273.0159809 43.47350707 270.61434937 46.78610229 C268.42684937 48.28610229 268.42684937 48.28610229 265.42684937 48.28610229 C265.42684937 73.03610229 265.42684937 97.78610229 265.42684937 123.28610229 C267.07684937 123.61610229 268.72684937 123.94610229 270.42684937 124.28610229 C272.95516727 128.07857916 273.04007106 130.83559942 272.42684937 135.28610229 C270.6152167 137.96041719 269.5492386 138.24530588 266.42684937 139.28610229 C263.69705864 139.38363185 260.9928956 139.42362253 258.26298714 139.41753006 C257.41683674 139.41958269 256.57068635 139.42163533 255.69889504 139.42375016 C252.83851495 139.4294443 249.97818264 139.42795995 247.11779785 139.42654419 C245.0563714 139.42912644 242.99494545 139.4321392 240.9335202 139.43554759 C235.24916191 139.44363722 229.56481623 139.44540825 223.88045287 139.44614506 C217.75764993 139.44799218 211.63485359 139.45553773 205.51205444 139.46228027 C191.41681377 139.47658679 177.32157725 139.48239166 163.22633105 139.48697222 C156.26380579 139.48930702 149.30128135 139.49290952 142.33875674 139.4966676 C118.51377278 139.50950315 94.68878929 139.52022292 70.86380196 139.5236702 C69.36790049 139.52389183 67.87199902 139.52411361 66.37609755 139.52433555 C64.87654968 139.52455619 63.3770018 139.52477667 61.87745392 139.524997 C58.86901673 139.52543955 55.86057953 139.52588667 52.85214233 139.52633667 C52.10622344 139.52644606 51.36030455 139.52655545 50.59178205 139.52666816 C26.39586158 139.5303002 2.19997104 139.54622576 -21.99593796 139.56952703 C-47.56670749 139.5941074 -73.1374599 139.60784218 -98.70824158 139.60903811 C-101.51368658 139.60920957 -104.31913157 139.609425 -107.12457657 139.60967255 C-107.81537519 139.60972832 -108.50617382 139.60978408 -109.21790573 139.60984154 C-120.34779947 139.61099348 -131.47766255 139.62202745 -142.60754593 139.6365596 C-153.78806649 139.65090579 -164.96854816 139.65391911 -176.14907895 139.64611962 C-182.20935532 139.6422006 -188.26952824 139.64320361 -194.32979202 139.65717697 C-199.87262817 139.66984086 -205.41528235 139.66878492 -210.95811798 139.65658626 C-212.9681999 139.65461617 -214.97829438 139.65776759 -216.9883586 139.66643062 C-219.7116651 139.67742876 -222.43431861 139.67010263 -225.15760612 139.65803909 C-225.94578623 139.66563429 -226.73396634 139.67322948 -227.5460307 139.68105483 C-232.50294308 139.63335115 -236.0002125 138.85904043 -239.57315063 135.28610229 C-240.16228217 128.09869752 -240.16228217 128.09869752 -237.76065063 124.78610229 C-235.57315063 123.28610229 -235.57315063 123.28610229 -232.57315063 123.28610229 C-232.57315063 98.53610229 -232.57315063 73.78610229 -232.57315063 48.28610229 C-234.22315063 47.95610229 -235.87315063 47.62610229 -237.57315063 47.28610229 C-239.98802007 44.87123286 -239.86934314 44.15902441 -239.88565063 40.84860229 C-239.90240845 40.06614136 -239.91916626 39.28368042 -239.93643188 38.47750854 C-239.46920524 35.65907685 -238.81209374 35.04902675 -236.57315063 33.28610229 C-233.65664673 32.27462769 -233.65664673 32.27462769 -230.09658813 31.38375854 C-229.459328 31.2213266 -228.82206787 31.05889465 -228.16549683 30.89154053 C-226.09551134 30.36680633 -224.02211931 29.85734361 -221.94815063 29.34860229 C-220.51095921 28.9887235 -219.07394782 28.62812497 -217.63711548 28.26681519 C-213.6190091 27.25992944 -209.59644677 26.27203563 -205.57315063 25.28610229 C-204.0158203 24.89823668 -202.4585191 24.51025401 -200.90127563 24.12203979 C-196.80207576 23.12750818 -192.69258688 22.19208725 -188.57315063 21.28610229 C-187.41122192 21.02973999 -186.24929321 20.77337769 -185.05215454 20.50924683 C-181.58482754 19.74676372 -178.11541223 18.99427257 -174.64486694 18.24658203 C-173.2669508 17.94928205 -171.88936144 17.65046152 -170.51217651 17.34979248 C-148.95575974 12.65593219 -127.2384213 9.60007023 -105.32315063 7.16110229 C-103.09652654 6.9077368 -100.8699638 6.65383146 -98.64346313 6.39938354 C-65.74833684 2.65939896 -33.12091989 0.26107132 0 0 Z " fill="#EA5468" transform="translate(239.57315063476563,360.7138977050781)"/>
<path d="M0 0 C2.38329739 1.87951095 4.59441143 3.84600687 6.796875 5.93359375 C9.0706808 8.06629458 11.43023069 10.00397962 13.875 11.9375 C17.60549827 14.89032386 21.31361639 17.86718048 25 20.875 C25.9075 21.61492188 26.815 22.35484375 27.75 23.1171875 C31.96563071 26.6448507 31.96563071 26.6448507 32.375 30.875 C32.30049171 34.02727367 32.11318211 34.84388675 30.1875 37.5 C28 39 28 39 25 39 C25 50.22 25 61.44 25 73 C26.32 73.33 27.64 73.66 29 74 C30.75 75.0625 30.75 75.0625 32 77 C32.64551623 82.08344031 32.64551623 82.08344031 32 85 C29.625 87.5 29.625 87.5 27 89 C26.34 89 25.68 89 25 89 C25 109.13 25 129.26 25 150 C7.78997966 151.14733469 7.78997966 151.14733469 1.10864258 151.05004883 C0.34234528 151.04376968 -0.42395203 151.03749054 -1.21347046 151.03102112 C-2.84038976 151.01740322 -4.46729167 151.00153027 -6.09416771 150.98346901 C-8.67144397 150.95633669 -11.24862874 150.93878549 -13.82600403 150.92399597 C-21.14075727 150.88168865 -28.45532408 150.83297773 -35.76977539 150.75317383 C-40.27391635 150.70471447 -44.77782289 150.67568687 -49.28219032 150.65942955 C-50.9898791 150.64954268 -52.69754209 150.63234865 -54.4050808 150.60764503 C-56.78101103 150.57396318 -59.15584344 150.56501896 -61.53198242 150.56176758 C-62.23274399 150.54581543 -62.93350555 150.52986328 -63.65550232 150.51342773 C-67.04178091 150.53459263 -68.71252612 150.7725332 -71.4042511 152.90238953 C-73.02919548 154.90371353 -73.02919548 154.90371353 -74 157 C-80.73742646 157.11044961 -87.29980211 156.70132913 -94 156 C-94.2475 155.05125 -94.495 154.1025 -94.75 153.125 C-95.66608296 150.02830429 -95.66608296 150.02830429 -97.57421875 148.859375 C-101.01140389 147.64169266 -104.45456149 147.41588519 -108.0625 147.125 C-109.86220176 146.96075438 -111.6616639 146.79387141 -113.4609375 146.625 C-114.48155273 146.52960938 -115.50216797 146.43421875 -116.55371094 146.3359375 C-123.43877403 145.66479505 -130.31362626 144.90127692 -137.1875 144.125 C-137.9452774 144.03946869 -138.70305481 143.95393738 -139.48379517 143.86581421 C-150.12263033 142.65522174 -160.69117663 141.20918691 -171.25244141 139.43237305 C-178.17293045 138.27016664 -185.0991368 137.30455583 -192.0625 136.4375 C-199.65126428 135.48564796 -207.10390447 134.29124665 -214.609375 132.81640625 C-228.71995744 130.11800814 -243.01323042 128.21121301 -257.25 126.3125 C-258.56786499 126.13364258 -258.56786499 126.13364258 -259.91235352 125.95117188 C-312.94107992 119.06832865 -367.09314517 125.54851914 -419 137 C-420.24185059 137.27376465 -421.48370117 137.5475293 -422.76318359 137.82958984 C-429.27933526 139.28103826 -435.78002371 140.78970569 -442.27148438 142.34765625 C-444.83998867 142.96174389 -447.4111558 143.56227043 -449.984375 144.15625 C-457.71349467 145.94605672 -465.33670663 147.9100109 -473 150 C-473 129.87 -473 109.74 -473 89 C-474.65 88.34 -476.3 87.68 -478 87 C-480 85 -480 85 -480.375 81.125 C-480.30049171 77.97272633 -480.11318211 77.15611325 -478.1875 74.5 C-476 73 -476 73 -473 73 C-473 55.84 -473 38.68 -473 21 C-474.65 20.67 -476.3 20.34 -478 20 C-479.97944936 17.03082597 -480.29350581 16.34297721 -480.3125 13 C-480.32925781 12.319375 -480.34601563 11.63875 -480.36328125 10.9375 C-479.87426421 8.3294091 -479.15222546 7.5457721 -477 6 C-458.76692554 0.96368549 -436.11753796 3.21557713 -419.5625 12.375 C-416.26070695 14.36054139 -416.26070695 14.36054139 -413.72265625 13.28515625 C-412.82417969 12.86105469 -411.92570312 12.43695312 -411 12 C-389.17302161 2.95163367 -370.07097408 -1.7102746 -347.31640625 7.53125 C-338.95009321 11.23647227 -331.21197317 15.66169536 -323.75 20.9375 C-323.20802979 21.31994873 -322.66605957 21.70239746 -322.10766602 22.09643555 C-319.52764999 23.97333997 -317.19613022 25.79450761 -314.98486328 28.11132812 C-310.82356302 32.43317947 -310.82356302 32.43317947 -305.34570312 34.48510742 C-302.29744418 34.40837357 -299.39153531 34.07035554 -296.375 33.625 C-294.02111151 33.3659493 -291.66693109 33.10954061 -289.3125 32.85546875 C-288.09691406 32.71028809 -286.88132812 32.56510742 -285.62890625 32.41552734 C-279.88772187 31.75813392 -274.13962719 31.32911013 -268.375 30.9375 C-267.14458984 30.84452637 -265.91417969 30.75155273 -264.64648438 30.65576172 C-255.61272381 30.02969256 -246.64677353 30.0084366 -237.59375 30.14453125 C-201.60662695 30.76293292 -201.60662695 30.76293292 -169.19970703 16.94287109 C-164.02092626 13.79830087 -158.53904089 11.36513203 -153.0184021 8.88696289 C-150.09035153 7.56844945 -147.17972349 6.21228815 -144.265625 4.86328125 C-114.89696487 -8.60399313 -114.89696487 -8.60399313 -101.43359375 -5.38671875 C-95.9108808 -3.0779603 -90.99695662 0.51650318 -86.08984375 3.90234375 C-84.56037109 4.94068359 -84.56037109 4.94068359 -83 6 C-82.43785294 6.46266266 -81.87570587 6.92532532 -81.29652405 7.40200806 C-78.45617271 9.54754669 -76.33229666 11.09694933 -72.682724 10.83137512 C-70.0610314 10.06945292 -67.60853976 9.12157943 -65.09375 8.05859375 C-64.16961304 7.70112564 -63.24547607 7.34365753 -62.29333496 6.97535706 C-59.34819342 5.82852332 -56.42487562 4.63495979 -53.5 3.4375 C-50.57174739 2.27579741 -47.63980064 1.1239356 -44.70666504 -0.02537537 C-42.88641035 -0.7426645 -41.06967108 -1.4689628 -39.25720215 -2.20570374 C-24.94229307 -7.97511655 -13.44700134 -8.62179085 0 0 Z " fill="#FDD1A3" transform="translate(480,19)"/>
<path d="M0 0 C0 8.58 0 17.16 0 26 C1.65 26.66 3.3 27.32 5 28 C7 30 7 30 7.375 33.875 C7.30049171 37.02727367 7.11318211 37.84388675 5.1875 40.5 C3 42 3 42 0 42 C0 63.45 0 84.9 0 107 C-5.888191 106.34575656 -10.10965787 105.86092198 -15.51171875 104.1796875 C-23.54091593 101.79469227 -31.63665244 99.92405305 -39.8125 98.125 C-40.58734741 97.9535849 -41.36219482 97.7821698 -42.16052246 97.6055603 C-58.6968056 93.95864335 -75.30215595 90.80888936 -92 88 C-92.67695923 87.88591797 -93.35391846 87.77183594 -94.0513916 87.65429688 C-112.96890965 84.47801116 -131.90300462 81.85499129 -151 80 C-152.3686923 79.86221274 -153.73734315 79.72401325 -155.10595703 79.58544922 C-170.86176505 78.00198469 -186.59734821 76.7114559 -202.4375 76.5 C-203.65163574 76.46946533 -204.86577148 76.43893066 -206.11669922 76.4074707 C-209.16691612 76.40636891 -212.00182337 76.437898 -215 77 C-217.17033729 79.4419779 -217.17033729 79.4419779 -219 82 C-222.35431583 82.78175413 -225.63335954 82.698116 -229.0625 82.625 C-229.97322266 82.64433594 -230.88394531 82.66367187 -231.82226562 82.68359375 C-234.32850899 82.66512475 -236.56126034 82.58084553 -239 82 C-241.05859375 79.5234375 -241.05859375 79.5234375 -242 77 C-243.83225515 75.16774485 -246.38901569 75.87122821 -248.82737732 75.86120605 C-250.06911461 75.86416687 -250.06911461 75.86416687 -251.3359375 75.8671875 C-252.19361221 75.86577759 -253.05128693 75.86436768 -253.93495178 75.86291504 C-256.74834207 75.86076479 -259.56162094 75.86710733 -262.375 75.875 C-263.81107101 75.87732635 -263.81107101 75.87732635 -265.27615356 75.87969971 C-280.87098868 75.90944868 -296.42551604 76.14602042 -312 77 C-312.97501465 77.04850098 -313.9500293 77.09700195 -314.95458984 77.14697266 C-372.5408459 80.13587868 -430.12667638 90.45418072 -485.90112305 104.76538086 C-487.04105713 105.05550049 -488.18099121 105.34562012 -489.35546875 105.64453125 C-490.37278076 105.90596924 -491.39009277 106.16740723 -492.43823242 106.43676758 C-495 107 -495 107 -498 107 C-498 76.31 -498 45.62 -498 14 C-455.13834139 2.97843064 -455.13834139 2.97843064 -443 1 C-442.13632812 0.85336914 -441.27265625 0.70673828 -440.3828125 0.55566406 C-395.03561258 -6.91120845 -355.96487526 3.21534701 -313.05480957 16.97137451 C-300.57017404 20.96752629 -288.06512849 24.54663389 -275.27978516 27.47119141 C-273.27742432 27.93564992 -271.28424679 28.43933407 -269.29296875 28.94921875 C-255.53617196 32.42658415 -241.82458436 33.17995433 -227.6875 33.25 C-225.95391235 33.26389771 -225.95391235 33.26389771 -224.18530273 33.27807617 C-216.28954726 33.24936024 -208.76305102 32.41681534 -201 31 C-199.76765625 30.77699219 -198.5353125 30.55398438 -197.265625 30.32421875 C-178.95231032 26.45754739 -161.38097978 20.14418026 -143.73095703 14.01391602 C-131.37034921 9.72752767 -118.99955217 5.72068846 -106.38745117 2.23657227 C-102.73899252 1.22572996 -99.14859852 0.09106336 -95.5625 -1.125 C-63.30662193 -10.99247941 -32.3812773 -6.43189755 0 0 Z " fill="#8C9BA7" transform="translate(505,286)"/>
<path d="M0 0 C3.9375 0.5 3.9375 0.5 5.6652832 2.19238281 C7.20757763 4.98988175 7.2834935 6.74039009 7.23046875 9.921875 C7.22080078 10.94667969 7.21113281 11.97148437 7.20117188 13.02734375 C7.17603516 14.09082031 7.15089844 15.15429688 7.125 16.25 C7.11146484 17.32894531 7.09792969 18.40789062 7.08398438 19.51953125 C7.04866584 22.1801942 6.99934199 24.83984296 6.9375 27.5 C8.72994141 27.19255859 8.72994141 27.19255859 10.55859375 26.87890625 C12.16403991 26.6066376 13.76950995 26.33450974 15.375 26.0625 C16.15810547 25.92779297 16.94121094 25.79308594 17.74804688 25.65429688 C18.53115234 25.52216797 19.31425781 25.39003906 20.12109375 25.25390625 C20.82806396 25.13345947 21.53503418 25.0130127 22.26342773 24.88891602 C29.96546444 23.76873483 37.49317531 23.34139689 45.27734375 23.33203125 C46.88616173 23.32567909 46.88616173 23.32567909 48.52748108 23.31919861 C51.97669437 23.30936389 55.42577526 23.30926478 58.875 23.3125 C60.04313232 23.31310425 61.21126465 23.3137085 62.41479492 23.31433105 C89.08728817 23.35199628 89.08728817 23.35199628 101.9375 24.25 C102.94159912 24.3116333 103.94569824 24.3732666 104.98022461 24.43676758 C108.90535282 24.77763677 111.26935341 25.02836711 114.52734375 27.328125 C116.44840578 30.28687981 116.56309938 32.14714924 116.40234375 35.59375 C115.9375 37.5 115.9375 37.5 113.5625 40 C110.9375 41.5 110.9375 41.5 108.9375 41.5 C108.97047271 44.44056614 109.03756919 47.37347963 109.125 50.3125 C109.13080078 51.14587891 109.13660156 51.97925781 109.14257812 52.83789062 C109.22662033 55.16305835 109.3513493 57.24710784 109.9375 59.5 C112.27934826 61.59928449 112.27934826 61.59928449 114.9375 62.5 C116.7878199 64.3503199 116.22890132 66.92472082 116.36328125 69.39453125 C115.73567607 72.4980101 114.45342471 73.63510756 111.9375 75.5 C109.265625 75.77734375 109.265625 75.77734375 106.1875 75.4375 C105.0325 75.31117188 103.8775 75.18484375 102.6875 75.0546875 C98.14662571 74.38301651 93.64948121 73.54229787 89.14550781 72.66455078 C43.09732091 63.77901259 3.0824432 77.92600862 -40.0625 92.5 C-45.35261152 94.28695425 -50.6436477 96.07105282 -55.93728638 97.84753418 C-57.99391701 98.53942726 -60.04862629 99.23680788 -62.10327148 99.93457031 C-116.90509094 118.41813377 -167.70236171 105.32087743 -220.88183594 88.22387695 C-271.98578877 71.82421646 -316.26844691 71.48156905 -368.38964844 85.38769531 C-370.6231157 85.982642 -372.8579635 86.57243299 -375.09423828 87.15673828 C-377.18772621 87.7052823 -379.2775613 88.26802967 -381.36279297 88.84716797 C-382.30010254 89.09354004 -383.23741211 89.33991211 -384.203125 89.59375 C-385.02329102 89.81740234 -385.84345703 90.04105469 -386.68847656 90.27148438 C-389.68946433 90.56034951 -391.39708578 89.85681582 -394.0625 88.5 C-396.0625 86.5 -396.0625 86.5 -396.4375 82.625 C-396.36299171 79.47272633 -396.17568211 78.65611325 -394.25 76 C-392.0625 74.5 -392.0625 74.5 -389.0625 74.5 C-389.0625 67.57 -389.0625 60.64 -389.0625 53.5 C-390.7125 53.17 -392.3625 52.84 -394.0625 52.5 C-396.47736943 50.08513057 -396.3586925 49.37292211 -396.375 46.0625 C-396.39175781 45.28003906 -396.40851563 44.49757812 -396.42578125 43.69140625 C-395.96331291 40.90167789 -395.25934677 40.25389145 -393.0625 38.5 C-390.52563477 37.65625 -390.52563477 37.65625 -387.50390625 37 C-386.39466797 36.7525 -385.28542969 36.505 -384.14257812 36.25 C-382.98177734 36.0025 -381.82097656 35.755 -380.625 35.5 C-378.35522845 35.001092 -376.08569561 34.50109667 -373.81640625 34 C-372.69347168 33.75548096 -371.57053711 33.51096191 -370.41357422 33.2590332 C-367.14646553 32.51901857 -363.90970605 31.69894844 -360.66796875 30.85546875 C-356.32506568 29.75402605 -352.28223106 29.05542017 -347.8125 28.8125 C-346.71421875 28.74675781 -345.6159375 28.68101562 -344.484375 28.61328125 C-343.68515625 28.57589844 -342.8859375 28.53851563 -342.0625 28.5 C-342.08344727 27.82420898 -342.10439453 27.14841797 -342.12597656 26.45214844 C-342.20921643 23.38491746 -342.26118466 20.31792418 -342.3125 17.25 C-342.34601563 16.18652344 -342.37953125 15.12304688 -342.4140625 14.02734375 C-342.42695313 13.00253906 -342.43984375 11.97773438 -342.453125 10.921875 C-342.47407227 9.97924805 -342.49501953 9.03662109 -342.51660156 8.06542969 C-341.92299864 4.71189233 -340.72856837 3.55620671 -338.0625 1.5 C-334.3121477 0.96423539 -332.10207385 0.84381509 -328.859375 2.890625 C-326.05640172 6.96102967 -326.63724004 10.93709187 -326.8125 15.75 C-326.83054687 16.68585938 -326.84859375 17.62171875 -326.8671875 18.5859375 C-326.91424327 20.89167015 -326.97996287 23.19530945 -327.0625 25.5 C-326.42103027 25.36070068 -325.77956055 25.22140137 -325.11865234 25.07788086 C-315.31612078 23.18113222 -305.63437619 23.06101687 -295.6875 23.0625 C-294.78842926 23.06110016 -293.88935852 23.05970032 -292.96304321 23.05825806 C-276.20498767 23.07959219 -260.45287466 24.86137762 -244.0625 28.5 C-243.11697266 28.70286621 -242.17144531 28.90573242 -241.19726562 29.11474609 C-228.94956783 31.78417331 -217.15997617 35.66774594 -205.31591797 39.73486328 C-201.45730668 41.04503531 -197.56566888 42.23564167 -193.6640625 43.41015625 C-190.73595282 44.29621113 -187.81665954 45.20332496 -184.8984375 46.12109375 C-162.96793701 52.97659399 -141.64961648 58.53030309 -118.5625 58.8125 C-117.66160645 58.83030518 -116.76071289 58.84811035 -115.83251953 58.86645508 C-97.7306244 58.84547766 -81.113205 52.47919493 -64.1875 46.75 C-16.04770408 30.5 -16.04770408 30.5 -8.0625 30.5 C-8.08344727 29.73333008 -8.10439453 28.96666016 -8.12597656 28.17675781 C-8.20915158 24.7013054 -8.26116575 21.22606237 -8.3125 17.75 C-8.34601563 16.5434375 -8.37953125 15.336875 -8.4140625 14.09375 C-8.42695313 12.93359375 -8.43984375 11.7734375 -8.453125 10.578125 C-8.47407227 9.50981445 -8.49501953 8.44150391 -8.51660156 7.34082031 C-7.7506266 2.54894684 -4.86445337 -0.07498194 0 0 Z " fill="#6A7DD5" transform="translate(396.0625,210.5)"/>
<path d="M0 0 C2.38329739 1.87951095 4.59441143 3.84600687 6.796875 5.93359375 C9.0706808 8.06629458 11.43023069 10.00397962 13.875 11.9375 C17.60549827 14.89032386 21.31361639 17.86718048 25 20.875 C25.9075 21.61492188 26.815 22.35484375 27.75 23.1171875 C31.96563071 26.6448507 31.96563071 26.6448507 32.375 30.875 C32.30049171 34.02727367 32.11318211 34.84388675 30.1875 37.5 C28 39 28 39 25 39 C25 50.22 25 61.44 25 73 C26.32 73.33 27.64 73.66 29 74 C30.75 75.0625 30.75 75.0625 32 77 C32.86253369 83.79245283 32.86253369 83.79245283 30.125 87.625 C22.14984186 91.13406958 11.55840651 85.12407573 4 82.1875 C-5.84112945 78.45433666 -15.60090065 75.20277967 -25.78808594 72.58740234 C-29.00860532 71.73215183 -32.19741878 70.77583531 -35.39208984 69.8293457 C-79.11406801 56.97307034 -125.55040911 49.82398036 -171 47 C-171.66425995 46.95763214 -172.3285199 46.91526428 -173.01290894 46.87161255 C-187.9024716 45.94597659 -202.77234341 45.79755073 -217.6875 45.8125 C-219.50805405 45.81390488 -219.50805405 45.81390488 -221.36538696 45.81533813 C-301.76148882 45.94937235 -387.5200314 56.81602569 -462.80859375 86.24438477 C-471.9518008 89.71278187 -471.9518008 89.71278187 -477 88 C-478.875 86.9375 -478.875 86.9375 -480 85 C-480.77076412 78.06312292 -480.77076412 78.06312292 -478.1875 74.5 C-476 73 -476 73 -473 73 C-473 55.84 -473 38.68 -473 21 C-474.65 20.67 -476.3 20.34 -478 20 C-479.97944936 17.03082597 -480.29350581 16.34297721 -480.3125 13 C-480.32925781 12.319375 -480.34601563 11.63875 -480.36328125 10.9375 C-479.87426421 8.3294091 -479.15222546 7.5457721 -477 6 C-458.76692554 0.96368549 -436.11753796 3.21557713 -419.5625 12.375 C-416.26070695 14.36054139 -416.26070695 14.36054139 -413.72265625 13.28515625 C-412.82417969 12.86105469 -411.92570312 12.43695312 -411 12 C-389.17302161 2.95163367 -370.07097408 -1.7102746 -347.31640625 7.53125 C-338.95009321 11.23647227 -331.21197317 15.66169536 -323.75 20.9375 C-323.20802979 21.31994873 -322.66605957 21.70239746 -322.10766602 22.09643555 C-319.52764999 23.97333997 -317.19613022 25.79450761 -314.98486328 28.11132812 C-310.82356302 32.43317947 -310.82356302 32.43317947 -305.34570312 34.48510742 C-302.29744418 34.40837357 -299.39153531 34.07035554 -296.375 33.625 C-294.02111151 33.3659493 -291.66693109 33.10954061 -289.3125 32.85546875 C-288.09691406 32.71028809 -286.88132812 32.56510742 -285.62890625 32.41552734 C-279.88772187 31.75813392 -274.13962719 31.32911013 -268.375 30.9375 C-267.14458984 30.84452637 -265.91417969 30.75155273 -264.64648438 30.65576172 C-255.61272381 30.02969256 -246.64677353 30.0084366 -237.59375 30.14453125 C-201.60662695 30.76293292 -201.60662695 30.76293292 -169.19970703 16.94287109 C-164.02092626 13.79830087 -158.53904089 11.36513203 -153.0184021 8.88696289 C-150.09035153 7.56844945 -147.17972349 6.21228815 -144.265625 4.86328125 C-114.89696487 -8.60399313 -114.89696487 -8.60399313 -101.43359375 -5.38671875 C-95.9108808 -3.0779603 -90.99695662 0.51650318 -86.08984375 3.90234375 C-84.56037109 4.94068359 -84.56037109 4.94068359 -83 6 C-82.43785294 6.46266266 -81.87570587 6.92532532 -81.29652405 7.40200806 C-78.45617271 9.54754669 -76.33229666 11.09694933 -72.682724 10.83137512 C-70.0610314 10.06945292 -67.60853976 9.12157943 -65.09375 8.05859375 C-64.16961304 7.70112564 -63.24547607 7.34365753 -62.29333496 6.97535706 C-59.34819342 5.82852332 -56.42487562 4.63495979 -53.5 3.4375 C-50.57174739 2.27579741 -47.63980064 1.1239356 -44.70666504 -0.02537537 C-42.88641035 -0.7426645 -41.06967108 -1.4689628 -39.25720215 -2.20570374 C-24.94229307 -7.97511655 -13.44700134 -8.62179085 0 0 Z " fill="#010101" transform="translate(480,19)"/>
<path d="M0 0 C2.72048299 2.00161052 4.69272261 3.58891272 5.43496704 6.99746704 C5.57867977 9.42630143 5.56219169 11.80630333 5.48828125 14.23828125 C5.48120651 15.11904831 5.47413177 15.99981537 5.46684265 16.90727234 C5.43893848 19.70989285 5.37620943 22.51048735 5.3125 25.3125 C5.2874119 27.21676794 5.26459962 29.12106732 5.24414062 31.02539062 C5.19338241 35.68499483 5.09553038 40.34024053 5 45 C12.59 45 20.18 45 28 45 C27.95359375 42.08671875 27.9071875 39.1734375 27.859375 36.171875 C27.8281758 33.34881329 27.80389009 30.52577083 27.78027344 27.70263672 C27.76016368 25.74128619 27.73287182 23.77999556 27.69824219 21.81884766 C27.64969579 18.99887305 27.62702514 16.17969135 27.609375 13.359375 C27.58872986 12.48319519 27.56808472 11.60701538 27.54681396 10.70428467 C27.54457773 4.63082628 27.54457773 4.63082628 29.84082031 1.45019531 C32.84081749 -0.56472816 34.45540499 -0.65104806 38 0 C40.72048299 2.00161052 42.69272261 3.58891272 43.43496704 6.99746704 C43.57867977 9.42630143 43.56219169 11.80630333 43.48828125 14.23828125 C43.48120651 15.11904831 43.47413177 15.99981537 43.46684265 16.90727234 C43.43893848 19.70989285 43.37620943 22.51048735 43.3125 25.3125 C43.2874119 27.21676794 43.26459962 29.12106732 43.24414062 31.02539062 C43.19338241 35.68499483 43.09553038 40.34024053 43 45 C50.59 45 58.18 45 66 45 C65.94199219 42.17050781 65.88398437 39.34101563 65.82421875 36.42578125 C65.78520108 33.67882082 65.75485487 30.9318915 65.7253418 28.18481445 C65.70023001 26.27874893 65.66613355 24.37277941 65.62280273 22.46704102 C65.56200256 19.72388002 65.53375755 16.98199414 65.51171875 14.23828125 C65.48591232 13.38913651 65.4601059 12.53999176 65.43351746 11.66511536 C65.43145857 7.30123908 65.6045129 5.52758155 68.30395508 1.92651367 C71 0 71 0 74.625 -0.0625 C78.46257655 1.14562595 79.17681973 1.50684789 81 5 C81.40809258 8.05080344 81.34866692 11.06753506 81.29296875 14.140625 C81.28872391 15.02280701 81.28447906 15.90498901 81.28010559 16.81390381 C81.26333838 19.62624883 81.22568998 22.43787226 81.1875 25.25 C81.17245062 27.1588438 81.15876266 29.06769886 81.14648438 30.9765625 C81.11599538 35.65154203 81.0572713 40.32496515 81 45 C88.59 45 96.18 45 104 45 C103.91298828 40.75576172 103.91298828 40.75576172 103.82421875 36.42578125 C103.78520108 33.67882082 103.75485487 30.9318915 103.7253418 28.18481445 C103.70023001 26.27874893 103.66613355 24.37277941 103.62280273 22.46704102 C103.56200256 19.72388002 103.53375755 16.98199414 103.51171875 14.23828125 C103.48591232 13.38913651 103.4601059 12.53999176 103.43351746 11.66511536 C103.43145807 7.30018383 103.60600165 5.52626356 106.30395508 1.92260742 C109 0 109 0 112.625 0 C115.94668593 0.98420324 116.96085482 1.36379786 119 4 C119.36076355 5.9172821 119.36076355 5.9172821 119.34057617 8.10424805 C119.34034958 8.92487228 119.34012299 9.74549652 119.33988953 10.59098816 C119.32440567 11.47232925 119.30892181 12.35367035 119.29296875 13.26171875 C119.28872391 14.16751175 119.28447906 15.07330475 119.28010559 16.00654602 C119.26330848 18.90049933 119.2256545 21.79375706 119.1875 24.6875 C119.17245449 26.64907849 119.15876585 28.61066789 119.14648438 30.57226562 C119.11595288 35.38199419 119.05723407 40.19021825 119 45 C126.59 45 134.18 45 142 45 C141.91298828 40.75576172 141.91298828 40.75576172 141.82421875 36.42578125 C141.78520108 33.67882082 141.75485487 30.9318915 141.7253418 28.18481445 C141.70023001 26.27874893 141.66613355 24.37277941 141.62280273 22.46704102 C141.56200256 19.72388002 141.53375755 16.98199414 141.51171875 14.23828125 C141.48591232 13.38913651 141.4601059 12.53999176 141.43351746 11.66511536 C141.43145807 7.30018383 141.60600165 5.52626356 144.30395508 1.92260742 C147 0 147 0 150.625 0 C153.94668593 0.98420324 154.96085482 1.36379786 157 4 C157.36076355 5.9172821 157.36076355 5.9172821 157.34057617 8.10424805 C157.34034958 8.92487228 157.34012299 9.74549652 157.33988953 10.59098816 C157.32440567 11.47232925 157.30892181 12.35367035 157.29296875 13.26171875 C157.28872391 14.16751175 157.28447906 15.07330475 157.28010559 16.00654602 C157.26330848 18.90049933 157.2256545 21.79375706 157.1875 24.6875 C157.17245449 26.64907849 157.15876585 28.61066789 157.14648438 30.57226562 C157.11595288 35.38199419 157.05723407 40.19021825 157 45 C164.59 45 172.18 45 180 45 C179.91298828 40.75576172 179.91298828 40.75576172 179.82421875 36.42578125 C179.78520108 33.67882082 179.75485487 30.9318915 179.7253418 28.18481445 C179.70023001 26.27874893 179.66613355 24.37277941 179.62280273 22.46704102 C179.56200256 19.72388002 179.53375755 16.98199414 179.51171875 14.23828125 C179.48591232 13.38913651 179.4601059 12.53999176 179.43351746 11.66511536 C179.43145121 7.28563269 179.58356443 5.54161399 182.33911133 1.95776367 C185 0 185 0 188.0625 -0.5625 C191.81326352 0.15573131 192.76371096 0.90241343 195 4 C195.55520723 7.12345681 195.46516868 10.19574112 195.390625 13.359375 C195.38496521 14.26375305 195.37930542 15.1681311 195.37347412 16.09991455 C195.35111248 18.98381853 195.30091686 21.86647261 195.25 24.75 C195.22993471 26.70701329 195.21168399 28.66404608 195.1953125 30.62109375 C195.15465232 35.41492948 195.07636351 40.20606857 195 45 C202.92 45 210.84 45 219 45 C218.95359375 42.08671875 218.9071875 39.1734375 218.859375 36.171875 C218.8281758 33.34881329 218.80389009 30.52577083 218.78027344 27.70263672 C218.76016368 25.74128619 218.73287182 23.77999556 218.69824219 21.81884766 C218.64969579 18.99887305 218.62702514 16.17969135 218.609375 13.359375 C218.58872986 12.48319519 218.56808472 11.60701538 218.54681396 10.70428467 C218.54457773 4.63082628 218.54457773 4.63082628 220.84082031 1.45019531 C223.84081749 -0.56472816 225.45540499 -0.65104806 229 0 C231.72048299 2.00161052 233.69272261 3.58891272 234.43496704 6.99746704 C234.57867977 9.42630143 234.56219169 11.80630333 234.48828125 14.23828125 C234.48120651 15.11904831 234.47413177 15.99981537 234.46684265 16.90727234 C234.43893848 19.70989285 234.37620943 22.51048735 234.3125 25.3125 C234.2874119 27.21676794 234.26459962 29.12106732 234.24414062 31.02539062 C234.19338241 35.68499483 234.09553038 40.34024053 234 45 C241.59 45 249.18 45 257 45 C256.95359375 42.08671875 256.9071875 39.1734375 256.859375 36.171875 C256.8281758 33.34881329 256.80389009 30.52577083 256.78027344 27.70263672 C256.76016368 25.74128619 256.73287182 23.77999556 256.69824219 21.81884766 C256.64969579 18.99887305 256.62702514 16.17969135 256.609375 13.359375 C256.58872986 12.48319519 256.56808472 11.60701538 256.54681396 10.70428467 C256.54457773 4.63082628 256.54457773 4.63082628 258.84082031 1.45019531 C261.84081749 -0.56472816 263.45540499 -0.65104806 267 0 C269.72048299 2.00161052 271.69272261 3.58891272 272.43496704 6.99746704 C272.57867977 9.42630143 272.56219169 11.80630333 272.48828125 14.23828125 C272.48120651 15.11904831 272.47413177 15.99981537 272.46684265 16.90727234 C272.43893848 19.70989285 272.37620943 22.51048735 272.3125 25.3125 C272.2874119 27.21676794 272.26459962 29.12106732 272.24414062 31.02539062 C272.19338241 35.68499483 272.09553038 40.34024053 272 45 C279.59 45 287.18 45 295 45 C294.95359375 42.08671875 294.9071875 39.1734375 294.859375 36.171875 C294.8281758 33.34881329 294.80389009 30.52577083 294.78027344 27.70263672 C294.76016368 25.74128619 294.73287182 23.77999556 294.69824219 21.81884766 C294.64969579 18.99887305 294.62702514 16.17969135 294.609375 13.359375 C294.58872986 12.48319519 294.56808472 11.60701538 294.54681396 10.70428467 C294.54457773 4.63082628 294.54457773 4.63082628 296.84082031 1.45019531 C299.84081749 -0.56472816 301.45540499 -0.65104806 305 0 C307.72048299 2.00161052 309.69272261 3.58891272 310.43496704 6.99746704 C310.57867977 9.42630143 310.56219169 11.80630333 310.48828125 14.23828125 C310.48120651 15.11904831 310.47413177 15.99981537 310.46684265 16.90727234 C310.43893848 19.70989285 310.37620943 22.51048735 310.3125 25.3125 C310.2874119 27.21676794 310.26459962 29.12106732 310.24414062 31.02539062 C310.19338241 35.68499483 310.09553038 40.34024053 310 45 C317.59 45 325.18 45 333 45 C332.95359375 42.08671875 332.9071875 39.1734375 332.859375 36.171875 C332.8281758 33.34881329 332.80389009 30.52577083 332.78027344 27.70263672 C332.76016368 25.74128619 332.73287182 23.77999556 332.69824219 21.81884766 C332.64969579 18.99887305 332.62702514 16.17969135 332.609375 13.359375 C332.58872986 12.48319519 332.56808472 11.60701538 332.54681396 10.70428467 C332.54457773 4.63082628 332.54457773 4.63082628 334.84082031 1.45019531 C337.84081749 -0.56472816 339.45540499 -0.65104806 343 0 C345.72048299 2.00161052 347.69272261 3.58891272 348.43496704 6.99746704 C348.57867977 9.42630143 348.56219169 11.80630333 348.48828125 14.23828125 C348.48120651 15.11904831 348.47413177 15.99981537 348.46684265 16.90727234 C348.43893848 19.70989285 348.37620943 22.51048735 348.3125 25.3125 C348.2874119 27.21676794 348.26459962 29.12106732 348.24414062 31.02539062 C348.19338241 35.68499483 348.09553038 40.34024053 348 45 C355.59 45 363.18 45 371 45 C370.94199219 42.17050781 370.88398438 39.34101563 370.82421875 36.42578125 C370.78520108 33.67882082 370.75485487 30.9318915 370.7253418 28.18481445 C370.70023001 26.27874893 370.66613355 24.37277941 370.62280273 22.46704102 C370.56200256 19.72388002 370.53375755 16.98199414 370.51171875 14.23828125 C370.48591232 13.38913651 370.4601059 12.53999176 370.43351746 11.66511536 C370.43145807 7.30018383 370.60600165 5.52626356 373.30395508 1.92260742 C376 0 376 0 379.625 0 C382.94668593 0.98420324 383.96085482 1.36379786 386 4 C386.36076355 5.9172821 386.36076355 5.9172821 386.34057617 8.10424805 C386.34034958 8.92487228 386.34012299 9.74549652 386.33988953 10.59098816 C386.32440567 11.47232925 386.30892181 12.35367035 386.29296875 13.26171875 C386.28872391 14.16751175 386.28447906 15.07330475 386.28010559 16.00654602 C386.26330848 18.90049933 386.2256545 21.79375706 386.1875 24.6875 C386.17245449 26.64907849 386.15876585 28.61066789 386.14648438 30.57226562 C386.11595288 35.38199419 386.05723407 40.19021825 386 45 C393.59 45 401.18 45 409 45 C408.94199219 42.17050781 408.88398438 39.34101563 408.82421875 36.42578125 C408.78520108 33.67882082 408.75485487 30.9318915 408.7253418 28.18481445 C408.70023001 26.27874893 408.66613355 24.37277941 408.62280273 22.46704102 C408.56200256 19.72388002 408.53375755 16.98199414 408.51171875 14.23828125 C408.48591232 13.38913651 408.4601059 12.53999176 408.43351746 11.66511536 C408.43145807 7.30018383 408.60600165 5.52626356 411.30395508 1.92260742 C414 0 414 0 417.625 0 C420.94668593 0.98420324 421.96085482 1.36379786 424 4 C424.36076355 5.9172821 424.36076355 5.9172821 424.34057617 8.10424805 C424.34034958 8.92487228 424.34012299 9.74549652 424.33988953 10.59098816 C424.32440567 11.47232925 424.30892181 12.35367035 424.29296875 13.26171875 C424.28872391 14.16751175 424.28447906 15.07330475 424.28010559 16.00654602 C424.26330848 18.90049933 424.2256545 21.79375706 424.1875 24.6875 C424.17245449 26.64907849 424.15876585 28.61066789 424.14648438 30.57226562 C424.11340157 35.38177856 424.06161222 40.19077133 424 45 C425.03930664 44.97905273 426.07861328 44.95810547 427.14941406 44.93652344 C431.01076442 44.86404326 434.87205483 44.81817169 438.73388672 44.78027344 C440.40423702 44.76017607 442.07451713 44.73289317 443.74462891 44.69824219 C446.1476372 44.64963881 448.54971434 44.62701344 450.953125 44.609375 C451.69806213 44.58872986 452.44299927 44.56808472 453.21051025 44.54681396 C456.74259658 44.54529042 458.630139 44.7161294 461.47192383 46.8972168 C464.03757513 50.4278055 463.47573546 52.7183809 463 57 C461.18836733 59.67431489 460.12238923 59.95920359 457 61 C454.27020927 61.09752956 451.56604624 61.13752024 448.83613777 61.13142776 C447.98998738 61.1334804 447.14383699 61.13553303 446.27204567 61.13764787 C443.41166558 61.143342 440.55133328 61.14185765 437.69094849 61.14044189 C435.62952203 61.14302414 433.56809608 61.1460369 431.50667083 61.1494453 C425.82231254 61.15753492 420.13796687 61.15930595 414.45360351 61.16004276 C408.33080056 61.16188989 402.20800422 61.16943543 396.08520508 61.17617798 C381.9899644 61.1904845 367.89472788 61.19628936 353.79948169 61.20086992 C346.83695642 61.20320473 339.87443199 61.20680722 332.91190737 61.2105653 C309.08692342 61.22340086 285.26193993 61.23412063 261.43695259 61.2375679 C259.94105112 61.23778954 258.44514966 61.23801132 256.94924819 61.23823325 C255.44970031 61.23845389 253.95015243 61.23867438 252.45060456 61.2388947 C249.44216736 61.23933726 246.43373016 61.23978437 243.42529297 61.24023438 C242.67937408 61.24034377 241.93345518 61.24045316 241.16493269 61.24056586 C216.96901222 61.2441979 192.77312168 61.26012347 168.57721267 61.28342474 C143.00644315 61.3080051 117.43569074 61.32173988 91.86490905 61.32293582 C89.05946405 61.32310728 86.25401906 61.32332271 83.44857407 61.32357025 C82.75777544 61.32362602 82.06697682 61.32368179 81.3552449 61.32373925 C70.22535116 61.32489118 59.09548808 61.33592515 47.96560471 61.35045731 C36.78508415 61.3648035 25.60460247 61.36781682 14.42407168 61.36001733 C8.36379532 61.3560983 2.30362239 61.35710131 -3.75664139 61.37107468 C-9.29947754 61.38373856 -14.84213171 61.38268263 -20.38496734 61.37048396 C-22.39504926 61.36851388 -24.40514375 61.37166529 -26.41520797 61.38032833 C-29.13851447 61.39132646 -31.86116797 61.38400034 -34.58445549 61.3719368 C-35.76672565 61.38332959 -35.76672565 61.38332959 -36.97288007 61.39495254 C-41.92979244 61.34724885 -45.42706187 60.57293813 -49 57 C-49.58897361 49.81452191 -49.58897361 49.81452191 -47.47631836 46.89282227 C-44.06878417 44.28820701 -41.06327186 44.49546664 -36.953125 44.609375 C-35.79632233 44.61786469 -35.79632233 44.61786469 -34.6161499 44.62652588 C-32.16012721 44.64886411 -29.70557945 44.69905237 -27.25 44.75 C-25.58205237 44.77006846 -23.91408179 44.78831863 -22.24609375 44.8046875 C-18.16349677 44.84872008 -14.08199819 44.91772717 -10 45 C-10.02094727 43.77893555 -10.04189453 42.55787109 -10.06347656 41.29980469 C-10.13590159 36.76753476 -10.18180888 32.23531593 -10.21972656 27.70263672 C-10.23983632 25.74128619 -10.26712818 23.77999556 -10.30175781 21.81884766 C-10.35030421 18.99887305 -10.37297486 16.17969135 -10.390625 13.359375 C-10.41127014 12.48319519 -10.43191528 11.60701538 -10.45318604 10.70428467 C-10.45542227 4.63082628 -10.45542227 4.63082628 -8.15917969 1.45019531 C-5.15918251 -0.56472816 -3.54459501 -0.65104806 0 0 Z " fill="#030101" transform="translate(49,439)"/>
<path d="M0 0 C3.9375 0.5 3.9375 0.5 5.6652832 2.19238281 C7.20757763 4.98988175 7.2834935 6.74039009 7.23046875 9.921875 C7.22080078 10.94667969 7.21113281 11.97148437 7.20117188 13.02734375 C7.17603516 14.09082031 7.15089844 15.15429688 7.125 16.25 C7.11146484 17.32894531 7.09792969 18.40789062 7.08398438 19.51953125 C7.04866584 22.1801942 6.99934199 24.83984296 6.9375 27.5 C8.72994141 27.19255859 8.72994141 27.19255859 10.55859375 26.87890625 C12.16403991 26.6066376 13.76950995 26.33450974 15.375 26.0625 C16.15810547 25.92779297 16.94121094 25.79308594 17.74804688 25.65429688 C18.53115234 25.52216797 19.31425781 25.39003906 20.12109375 25.25390625 C20.82806396 25.13345947 21.53503418 25.0130127 22.26342773 24.88891602 C29.96546444 23.76873483 37.49317531 23.34139689 45.27734375 23.33203125 C46.88616173 23.32567909 46.88616173 23.32567909 48.52748108 23.31919861 C51.97669437 23.30936389 55.42577526 23.30926478 58.875 23.3125 C60.04313232 23.31310425 61.21126465 23.3137085 62.41479492 23.31433105 C89.08728817 23.35199628 89.08728817 23.35199628 101.9375 24.25 C102.94159912 24.3116333 103.94569824 24.3732666 104.98022461 24.43676758 C108.90535282 24.77763677 111.26935341 25.02836711 114.52734375 27.328125 C116.01205183 29.61482221 116.50527805 30.79763936 116.5 33.5 C116.52191406 34.16 116.54382813 34.82 116.56640625 35.5 C115.51096982 38.85641895 113.97574634 39.74204017 110.9375 41.5 C107.15325245 41.72589358 103.4779656 41.22485048 99.72265625 40.76953125 C87.64329616 39.55578402 75.71558607 39.15935078 63.58032227 39.18432617 C60.37156636 39.1875034 57.16372268 39.16381378 53.95507812 39.13867188 C34.24383933 39.0770986 14.95055635 41.10644165 -4.25 45.625 C-4.89059357 45.77306091 -5.53118713 45.92112183 -6.19119263 46.07366943 C-23.26401792 50.03364782 -39.87858139 55.41778726 -56.48432922 60.98257446 C-60.01127252 62.16237651 -63.54155352 63.33204087 -67.07180786 64.50189209 C-69.60032187 65.34590028 -72.12227659 66.207592 -74.64428711 67.07080078 C-89.17283223 71.95901185 -103.96897826 75.1255281 -119.375 74.875 C-120.79921265 74.86194824 -120.79921265 74.86194824 -122.25219727 74.84863281 C-144.07590992 74.40924129 -164.58535596 69.04582319 -185.27923584 62.58352661 C-187.82151424 61.79018327 -190.36583281 61.00368234 -192.91064453 60.21850586 C-200.67711181 57.81858446 -208.43348886 55.39177948 -216.16796875 52.890625 C-230.40520281 48.31296528 -244.52068058 44.51667925 -259.27197266 41.98730469 C-261.10492503 41.66721957 -262.93333391 41.31967501 -264.75537109 40.94238281 C-274.31726247 39.07364181 -283.85667234 39.10109048 -293.5625 39.125 C-294.47011078 39.1262085 -295.37772156 39.12741699 -296.31283569 39.12866211 C-322.12490772 39.22154694 -346.51241371 43.92861252 -371.5859375 49.6953125 C-372.58718407 49.92331039 -372.58718407 49.92331039 -373.60865784 50.15591431 C-376.56445431 50.84548301 -379.42591264 51.62259769 -382.30322266 52.59326172 C-386.57626111 53.99744371 -390.2742512 54.187788 -394.5 52.5625 C-396.7051188 49.65174319 -396.5020449 47.22694231 -396.49609375 43.65625 C-395.94773778 40.92929059 -395.2235587 40.23209318 -393.0625 38.5 C-390.52563477 37.65625 -390.52563477 37.65625 -387.50390625 37 C-386.39466797 36.7525 -385.28542969 36.505 -384.14257812 36.25 C-382.98177734 36.0025 -381.82097656 35.755 -380.625 35.5 C-378.35522845 35.001092 -376.08569561 34.50109667 -373.81640625 34 C-372.69347168 33.75548096 -371.57053711 33.51096191 -370.41357422 33.2590332 C-367.14646553 32.51901857 -363.90970605 31.69894844 -360.66796875 30.85546875 C-356.32506568 29.75402605 -352.28223106 29.05542017 -347.8125 28.8125 C-346.71421875 28.74675781 -345.6159375 28.68101562 -344.484375 28.61328125 C-343.68515625 28.57589844 -342.8859375 28.53851563 -342.0625 28.5 C-342.08344727 27.82420898 -342.10439453 27.14841797 -342.12597656 26.45214844 C-342.20921643 23.38491746 -342.26118466 20.31792418 -342.3125 17.25 C-342.34601563 16.18652344 -342.37953125 15.12304688 -342.4140625 14.02734375 C-342.42695313 13.00253906 -342.43984375 11.97773438 -342.453125 10.921875 C-342.47407227 9.97924805 -342.49501953 9.03662109 -342.51660156 8.06542969 C-341.92299864 4.71189233 -340.72856837 3.55620671 -338.0625 1.5 C-334.3121477 0.96423539 -332.10207385 0.84381509 -328.859375 2.890625 C-326.05640172 6.96102967 -326.63724004 10.93709187 -326.8125 15.75 C-326.83054687 16.68585938 -326.84859375 17.62171875 -326.8671875 18.5859375 C-326.91424327 20.89167015 -326.97996287 23.19530945 -327.0625 25.5 C-326.42103027 25.36070068 -325.77956055 25.22140137 -325.11865234 25.07788086 C-315.31612078 23.18113222 -305.63437619 23.06101687 -295.6875 23.0625 C-294.78842926 23.06110016 -293.88935852 23.05970032 -292.96304321 23.05825806 C-276.20498767 23.07959219 -260.45287466 24.86137762 -244.0625 28.5 C-243.11697266 28.70286621 -242.17144531 28.90573242 -241.19726562 29.11474609 C-228.94956783 31.78417331 -217.15997617 35.66774594 -205.31591797 39.73486328 C-201.45730668 41.04503531 -197.56566888 42.23564167 -193.6640625 43.41015625 C-190.73595282 44.29621113 -187.81665954 45.20332496 -184.8984375 46.12109375 C-162.96793701 52.97659399 -141.64961648 58.53030309 -118.5625 58.8125 C-117.66160645 58.83030518 -116.76071289 58.84811035 -115.83251953 58.86645508 C-97.7306244 58.84547766 -81.113205 52.47919493 -64.1875 46.75 C-16.04770408 30.5 -16.04770408 30.5 -8.0625 30.5 C-8.08344727 29.73333008 -8.10439453 28.96666016 -8.12597656 28.17675781 C-8.20915158 24.7013054 -8.26116575 21.22606237 -8.3125 17.75 C-8.34601563 16.5434375 -8.37953125 15.336875 -8.4140625 14.09375 C-8.42695313 12.93359375 -8.43984375 11.7734375 -8.453125 10.578125 C-8.47407227 9.50981445 -8.49501953 8.44150391 -8.51660156 7.34082031 C-7.7506266 2.54894684 -4.86445337 -0.07498194 0 0 Z " fill="#020202" transform="translate(396.0625,210.5)"/>
<path d="M0 0 C1.60922355 0.27822118 3.21859678 0.55557805 4.828125 0.83203125 C7.66700148 1.32363866 10.50239028 1.83019844 13.3359375 2.3515625 C15.83369119 2.79359567 18.34162338 3.18078613 20.85546875 3.51953125 C24 4 24 4 25.9375 5.0625 C27.65273412 8.19027986 27.83194701 11.58705202 27 15 C25.33203125 17.2578125 25.33203125 17.2578125 23 19 C20.328125 19.27734375 20.328125 19.27734375 17.25 18.9375 C16.095 18.81117188 14.94 18.68484375 13.75 18.5546875 C9.20912571 17.88301651 4.71198121 17.04229787 0.20800781 16.16455078 C-45.84017909 7.27901259 -85.8550568 21.42600862 -129 36 C-134.29011152 37.78695425 -139.5811477 39.57105282 -144.87478638 41.34753418 C-146.93141701 42.03942726 -148.98612629 42.73680788 -151.04077148 43.43457031 C-205.84259094 61.91813377 -256.63986171 48.82087743 -309.81933594 31.72387695 C-360.92328877 15.32421646 -405.20594691 14.98156905 -457.32714844 28.88769531 C-459.5606157 29.482642 -461.7954635 30.07243299 -464.03173828 30.65673828 C-466.12522621 31.2052823 -468.2150613 31.76802967 -470.30029297 32.34716797 C-471.23760254 32.59354004 -472.17491211 32.83991211 -473.140625 33.09375 C-473.96079102 33.31740234 -474.78095703 33.54105469 -475.62597656 33.77148438 C-478.62696433 34.06034951 -480.33458578 33.35681582 -483 32 C-485.56077765 29.43922235 -485.31451364 27.57117397 -485.4609375 24.0703125 C-484.77507794 20.98975685 -483.48534164 19.91611823 -481 18 C-477.7421875 16.875 -477.7421875 16.875 -473.875 16 C-472.83134277 15.75745483 -472.83134277 15.75745483 -471.76660156 15.51000977 C-469.51429562 14.99099796 -467.25792444 14.49395086 -465 14 C-463.45561415 13.6554631 -461.91134345 13.3104096 -460.3671875 12.96484375 C-458.05677413 12.44933124 -455.74590198 11.93660569 -453.43310547 11.43188477 C-449.26186946 10.5199054 -445.12799842 9.53221781 -441 8.4375 C-436.09650121 7.1895833 -431.17463129 6.27133228 -426.1875 5.4375 C-425.15786133 5.26528931 -425.15786133 5.26528931 -424.10742188 5.08959961 C-421.74090112 4.70740325 -419.37098717 4.3534499 -417 4 C-415.92250488 3.82791016 -414.84500977 3.65582031 -413.73486328 3.47851562 C-403.62251344 1.96997634 -393.70987513 1.59974603 -383.5 1.625 C-382.25076248 1.62581573 -382.25076248 1.62581573 -380.97628784 1.62664795 C-367.28290768 1.66760538 -354.34195281 2.75587789 -341 6 C-340.11022461 6.20367187 -339.22044922 6.40734375 -338.30371094 6.6171875 C-324.17829642 9.86879269 -310.50267121 14.38994809 -296.79156494 19.0380249 C-288.25217578 21.93269083 -279.69735132 24.62536246 -271 27 C-270.12327637 27.24202148 -269.24655273 27.48404297 -268.34326172 27.73339844 C-237.25503734 36.26617995 -204.68616469 41.83098177 -173 33 C-171.81458618 32.69449219 -171.81458618 32.69449219 -170.60522461 32.3828125 C-162.97934583 30.39079267 -155.5330926 27.9107086 -148.07116699 25.38775635 C-144.1142882 24.05151049 -140.15250028 22.72993672 -136.19140625 21.40625 C-135.36365692 21.1294339 -134.53590759 20.8526178 -133.68307495 20.56741333 C-81.34364793 3.06639579 -81.34364793 3.06639579 -62 -1 C-60.81019531 -1.26167969 -59.62039063 -1.52335937 -58.39453125 -1.79296875 C-39.26471008 -5.26476333 -18.99213174 -3.41904731 0 0 Z " fill="#020203" transform="translate(485,267)"/>
<path d="M0 0 C1.04998169 -0.00004028 2.09996338 -0.00008057 3.1817627 -0.00012207 C22.44158384 0.04299185 41.45230694 1.53511088 60.5 4.375 C61.69133545 4.54829834 62.8826709 4.72159668 64.11010742 4.90014648 C71.48487977 5.99060127 78.78453425 7.27876343 86.09765625 8.72265625 C92.14576142 9.85173914 98.26156334 10.54425057 104.36328125 11.31494141 C110.56632297 12.09947966 116.75549257 12.93886565 122.9375 13.875 C123.74453369 13.99689697 124.55156738 14.11879395 125.38305664 14.24438477 C129.92255869 14.93557372 134.45811585 15.64907639 138.9921875 16.375 C151.4283423 18.35168484 163.87642425 20.10009269 176.375 21.625 C177.0602475 21.70958466 177.745495 21.79416931 178.45150757 21.88131714 C186.67234671 22.89104567 194.84613983 23.67568743 203.12792969 23.98950195 C206.47054989 24.48915233 208.413564 25.44913396 211.125 27.4375 C212.54541821 30.27833641 212.43952272 32.29227278 212.125 35.4375 C210.09189555 38.08211368 208.89137254 39.2901348 205.5793457 39.92700195 C194.24320076 39.69331316 183.03706551 38.38189827 171.78588867 37.03881836 C168.33164623 36.62728108 164.87601157 36.22967484 161.41992188 35.83398438 C150.50766272 34.56609947 139.68732139 33.1257197 128.88745117 31.11401367 C122.84850842 30.02817172 116.77338786 29.26967002 110.6875 28.5 C93.83879022 26.30825473 77.01586543 23.93886273 60.3125 20.8125 C50.65226224 19.05171961 40.90487883 18.2396488 31.125 17.4375 C32.91612799 19.97954763 34.70790095 22.52113705 36.5 25.0625 C37.23283203 26.10277344 37.23283203 26.10277344 37.98046875 27.1640625 C39.05839629 28.69226357 40.15175416 30.20964533 41.2565918 31.71850586 C43.125 34.4375 43.125 34.4375 45.03442383 37.87719727 C51.92830261 49.77378959 61.32181291 52.45827531 74.0625 56.125 C76.89269 56.9871372 79.71816636 57.86296316 82.54188538 58.74604797 C84.28677711 59.28667306 86.03625977 59.81275684 87.79051208 60.32218933 C88.57885941 60.55706558 89.36720673 60.79194183 90.17944336 61.03393555 C91.21674843 61.33366524 91.21674843 61.33366524 92.27500916 61.63945007 C94.47275511 62.58751476 95.64344341 63.56098367 97.125 65.4375 C97.625 68.875 97.625 68.875 97.125 72.4375 C95.125 74.9375 95.125 74.9375 92.125 76.4375 C84.40577108 76.15531121 77.36975696 73.37279635 70.125 70.875 C68.86091503 70.44526298 67.59659365 70.01622069 66.33203125 69.58789062 C63.26063202 68.54455272 60.19180152 67.4942602 57.125 66.4375 C57.12089111 67.04746826 57.11678223 67.65743652 57.11254883 68.28588867 C57.07952425 71.06655792 57.00887432 73.84506157 56.9375 76.625 C56.92879883 78.06456055 56.92879883 78.06456055 56.91992188 79.53320312 C56.77251779 84.26651207 56.67514406 86.70518903 53.765625 90.578125 C51.125 92.4375 51.125 92.4375 48.0625 93 C44.40051604 92.29876903 43.38396157 91.37312433 41.125 88.4375 C40.76953125 85.4074707 40.76953125 85.4074707 40.9375 81.86328125 C40.98342285 79.9145813 40.98342285 79.9145813 41.03027344 77.92651367 C41.05728333 76.9029628 41.05728333 76.9029628 41.08483887 75.85873413 C41.34943326 61.965719 39.5162188 52.88759778 29.88476562 42.43261719 C26.65618112 38.77224086 23.93574831 34.73377265 21.125 30.75 C20.06395566 29.2867038 19.00153386 27.82440506 17.9375 26.36328125 C16.22665325 24.01302401 14.79393586 21.81647065 13.41796875 19.23535156 C11.34656316 16.11460994 11.34656316 16.11460994 7.71875 15.70874023 C6.35424294 15.68968278 4.98900132 15.70434311 3.625 15.74609375 C2.8851033 15.74624481 2.1452066 15.74639587 1.38288879 15.74655151 C-1.03791872 15.75742248 -3.4549675 15.81427105 -5.875 15.875 C-7.55247851 15.8976159 -9.2299693 15.91933708 -10.9074707 15.94018555 C-29.99024083 16.26132378 -48.83860362 18.32410872 -67.6171875 21.7109375 C-70.47099448 22.21778619 -73.31723163 22.63396438 -76.1953125 22.9765625 C-88.77574671 24.50363653 -101.07199758 27.08766849 -113.4375 29.8125 C-114.29715363 30.0013678 -115.15680725 30.1902356 -116.04251099 30.38482666 C-125.58575546 32.48957788 -135.10200673 34.69674701 -144.58984375 37.0390625 C-145.7891024 37.33216812 -145.7891024 37.33216812 -147.0125885 37.63119507 C-151.70466845 38.80508423 -156.25407156 40.18937361 -160.80543518 41.82894897 C-164.33430789 42.8666063 -167.21333562 42.81629287 -170.875 42.4375 C-173.06076747 40.84329345 -173.77856054 39.95940764 -174.2734375 37.28125 C-174.26570312 36.5078125 -174.25796875 35.734375 -174.25 34.9375 C-174.25773438 34.1640625 -174.26546875 33.390625 -174.2734375 32.59375 C-173.766273 29.84909508 -173.14273186 29.05386207 -170.875 27.4375 C-168.265625 26.62890625 -168.265625 26.62890625 -165.125 26 C-160.32968315 24.98073111 -155.6031462 23.85909516 -150.875 22.5625 C-132.0426507 17.49446716 -112.97835488 13.34282395 -93.875 9.4375 C-92.95686523 9.24800781 -92.03873047 9.05851563 -91.09277344 8.86328125 C-84.38321122 7.50657768 -77.64864838 6.42179014 -70.875 5.4375 C-70.16529053 5.33310608 -69.45558105 5.22871216 -68.72436523 5.12115479 C-45.81407149 1.7775001 -23.16297602 -0.03683325 0 0 Z " fill="#030202" transform="translate(173.875,141.5625)"/>
<path d="M0 0 C3.12885579 2.19764871 6.11179516 4.49532371 9 7 C6.40107622 9.59892378 4.73645797 9.55738049 1.12109375 10.11328125 C-0.09610352 10.30623779 -1.31330078 10.49919434 -2.56738281 10.69799805 C-3.21727173 10.7976889 -3.86716064 10.89737976 -4.53674316 11.00009155 C-7.99284078 11.53308449 -11.44341437 12.0998619 -14.89453125 12.6640625 C-15.59230682 12.77769638 -16.2900824 12.89133026 -17.00900269 13.00840759 C-52.38374326 18.79638322 -87.3203506 27.4971796 -121.31835938 38.80834961 C-125.85634868 40.27717758 -130.43137921 41.62941376 -135 43 C-135 25.84 -135 8.68 -135 -9 C-119.71280267 -12.05743947 -101.87868679 -11.9124989 -88.375 -3.33203125 C-86.90278313 -2.28506622 -85.43134239 -1.23700833 -83.9609375 -0.1875 C-81.43551576 1.34183906 -79.14628827 1.88942822 -76.19140625 1.65234375 C-72.26260611 0.48280788 -68.98626564 -1.90187871 -65.51953125 -4.04296875 C-43.14221828 -17.07434887 -21.18791477 -13.07558887 0 0 Z " fill="#21B07E" transform="translate(142,49)"/>
<path d="M0 0 C1.90516507 -0.01755791 3.81028016 -0.04187987 5.715271 -0.07305908 C8.40974754 -0.1149336 11.10318185 -0.13059113 13.79794312 -0.13967896 C15.01656036 -0.16587311 15.01656036 -0.16587311 16.25979614 -0.19259644 C19.86532461 -0.1788301 21.98524639 -0.03891095 24.93099976 2.12911987 C26.42684937 4.28610229 26.42684937 4.28610229 26.98934937 7.22360229 C26.22552255 11.38221495 24.70315501 12.6618385 21.42684937 15.28610229 C18.7269803 15.77738713 16.64634836 15.96314255 13.95419312 15.92282104 C12.84597954 15.93716438 12.84597954 15.93716438 11.71537781 15.95179749 C10.109482 15.97029115 8.50343132 15.977852 6.89743042 15.97573853 C3.4257628 15.97281075 -0.04433748 16.0268989 -3.51556396 16.07809448 C-5.3557588 16.10505012 -7.1959932 16.12941512 -9.03625488 16.15133667 C-19.47363208 16.28305424 -29.89624688 16.68878741 -40.32315063 17.16110229 C-41.7245076 17.22412537 -41.7245076 17.22412537 -43.1541748 17.28842163 C-57.3708869 17.94338332 -71.43160703 19.06656674 -85.55020142 20.90377808 C-88.62655914 21.29285708 -91.70496681 21.63784071 -94.78799438 21.96969604 C-124.37959331 25.16588158 -153.52171919 29.84072103 -182.57315063 36.28610229 C-183.25605164 36.43732544 -183.93895264 36.58854858 -184.64254761 36.74435425 C-198.66567351 39.85756043 -212.64740917 43.00807563 -226.32315063 47.43844604 C-230.46556294 48.51885887 -233.92258796 48.93764019 -237.94815063 47.34860229 C-240.23722233 44.44324206 -240.01276268 42.05332905 -240.00674438 38.44235229 C-239.45247085 35.68596498 -238.77672702 35.02781869 -236.57315063 33.28610229 C-233.65664673 32.27462769 -233.65664673 32.27462769 -230.09658813 31.38375854 C-229.459328 31.2213266 -228.82206787 31.05889465 -228.16549683 30.89154053 C-226.09551134 30.36680633 -224.02211931 29.85734361 -221.94815063 29.34860229 C-220.51095921 28.9887235 -219.07394782 28.62812497 -217.63711548 28.26681519 C-213.6190091 27.25992944 -209.59644677 26.27203563 -205.57315063 25.28610229 C-204.0158203 24.89823668 -202.4585191 24.51025401 -200.90127563 24.12203979 C-196.80207576 23.12750818 -192.69258688 22.19208725 -188.57315063 21.28610229 C-187.41122192 21.02973999 -186.24929321 20.77337769 -185.05215454 20.50924683 C-181.58482754 19.74676372 -178.11541223 18.99427257 -174.64486694 18.24658203 C-173.2669508 17.94928205 -171.88936144 17.65046152 -170.51217651 17.34979248 C-148.95575974 12.65593219 -127.2384213 9.60007023 -105.32315063 7.16110229 C-103.09652654 6.9077368 -100.8699638 6.65383146 -98.64346313 6.39938354 C-65.74833684 2.65939896 -33.12091989 0.26107132 0 0 Z " fill="#030202" transform="translate(239.57315063476563,360.7138977050781)"/>
<path d="M0 0 C2.33607778 1.72144176 4.47758596 3.61315765 6.625 5.5625 C7.83394655 6.62726481 9.04494507 7.68970359 10.2578125 8.75 C10.87172852 9.28753906 11.48564453 9.82507813 12.11816406 10.37890625 C15.18314217 13.01920914 18.32835316 15.55200316 21.5 18.0625 C22.06283691 18.5150415 22.62567383 18.96758301 23.20556641 19.43383789 C26.74298761 22.21685526 29.87315888 23.93657944 34 26 C34 37.22 34 48.44 34 60 C22.81143878 56.64343164 22.81143878 56.64343164 18.109375 54.94921875 C5.0029344 50.2859554 -8.08704256 46.13807456 -21.55224609 42.64990234 C-23.78263713 42.05771194 -25.99521573 41.42721225 -28.20703125 40.76953125 C-38.30002929 37.78414262 -48.52269536 35.50128346 -58.8125 33.3125 C-59.51637848 33.16193146 -60.22025696 33.01136292 -60.94546509 32.85623169 C-69.10799828 31.11741299 -77.24466999 29.57495284 -85.5300293 28.51635742 C-88 28 -88 28 -90 26 C-73.35802181 17.71882425 -56.43559946 10.68443839 -39 4.25 C-37.55734268 3.71693237 -37.55734268 3.71693237 -36.08554077 3.1730957 C-33.32956172 2.15754464 -30.5717587 1.14722841 -27.8125 0.140625 C-26.98132156 -0.16296936 -26.15014313 -0.46656372 -25.29377747 -0.77935791 C-24.52265121 -1.05809753 -23.75152496 -1.33683716 -22.95703125 -1.62402344 C-22.28647705 -1.86683044 -21.61592285 -2.10963745 -20.92504883 -2.35980225 C-12.89188624 -5.03132547 -7.1930631 -4.27237267 0 0 Z " fill="#D2D7F0" transform="translate(471,32)"/>
<path d="M0 0 C1.67763428 -0.00906372 1.67763428 -0.00906372 3.38916016 -0.01831055 C5.22293213 0.00235474 5.22293213 0.00235474 7.09375 0.0234375 C9.0106665 0.03540161 9.0106665 0.03540161 10.96630859 0.04760742 C26.23848246 0.22429932 41.41655591 1.66508208 56.60211182 3.19921875 C58.45472753 3.38453142 60.30814935 3.56173597 62.16162109 3.73828125 C105.7278835 7.89172219 149.08952142 16.28456758 191.57421875 26.6640625 C194.31687135 27.33109832 197.06315678 27.9784076 199.8125 28.6171875 C201.26056376 28.96031734 202.70849597 29.30400317 204.15625 29.6484375 C205.31253906 29.92171875 206.46882812 30.195 207.66015625 30.4765625 C211.0088745 31.52888941 214.07800701 32.88269451 216.59375 35.3984375 C217.17346014 42.47090127 217.17346014 42.47090127 215.03125 45.8984375 C211.68261296 47.95913722 209.50452011 47.63711133 205.59375 47.3984375 C202.90481879 46.72560149 200.33852706 46.00107427 197.7109375 45.1484375 C189.12475795 42.49710809 180.48363533 40.36648513 171.71875 38.3984375 C170.96374207 38.22757629 170.20873413 38.05671509 169.43084717 37.88067627 C155.21676318 34.67010823 140.96124223 31.84013333 126.59375 29.3984375 C125.91117126 29.28155579 125.22859253 29.16467407 124.52532959 29.04425049 C86.83287677 22.59149235 48.84773415 17.19427612 10.5625 16.16796875 C9.57983154 16.13985107 8.59716309 16.1117334 7.5847168 16.08276367 C5.87820812 16.04496569 4.17099795 16.02850922 2.46411133 16.0402832 C-1.47315487 15.96801166 -3.23588959 15.53027196 -6.39453125 13.0859375 C-8.40625 10.3984375 -8.40625 10.3984375 -8.90625 6.7734375 C-8.40625 3.3984375 -8.40625 3.3984375 -7.21289062 1.71240234 C-4.73191961 -0.09200117 -3.05476057 0.0105858 0 0 Z " fill="#040102" transform="translate(295.40625,361.6015625)"/>
<path d="M0 0 C1.17160675 -0.0007251 2.3432135 -0.0014502 3.55032349 -0.00219727 C24.6574425 -0.00072113 45.55160683 0.87690016 66.5625 2.875 C67.45403778 2.95920197 68.34557556 3.04340393 69.26412964 3.13015747 C111.52128259 7.18011462 153.95100201 14.76391716 194.47949219 27.49804688 C196.51593661 28.13392912 198.55685996 28.75067071 200.6015625 29.359375 C210.25524431 32.27746515 219.71175662 35.66466996 229.17260742 39.15356445 C230.20232666 39.53085693 231.2320459 39.90814941 232.29296875 40.296875 C233.21231201 40.63686523 234.13165527 40.97685547 235.07885742 41.32714844 C237.60467149 42.16018248 240.07083483 42.72554444 242.6875 43.1875 C242.6875 45.8275 242.6875 48.4675 242.6875 51.1875 C234.92095396 49.70322676 227.56902907 47.23216049 220.10610962 44.67831421 C207.52813582 40.38157881 194.92979993 36.32095054 182.09619141 32.84814453 C179.66489019 32.18129869 177.24455902 31.48285437 174.82421875 30.77734375 C145.35401466 22.2942306 115.17163884 16.87574985 84.85357666 12.50067139 C82.78649075 12.20181208 80.72008677 11.89862515 78.65380859 11.59423828 C64.09679303 9.46905878 49.52677493 7.79176473 34.875 6.5 C34.18410278 6.43906158 33.49320557 6.37812317 32.78137207 6.31533813 C28.0856322 5.90663693 23.38791682 5.5384237 18.6875 5.1875 C17.48440186 5.0939624 16.28130371 5.0004248 15.04174805 4.90405273 C0.48959003 3.90336581 -14.10382374 3.85351222 -28.6842041 3.65527344 C-32.37219218 3.6043111 -36.06011541 3.54902226 -39.74804688 3.49414062 C-46.93614244 3.38778769 -54.12429331 3.28608998 -61.3125 3.1875 C-61.3125 2.8575 -61.3125 2.5275 -61.3125 2.1875 C-40.8749852 0.44754629 -20.50782991 -0.01240132 0 0 Z " fill="#F6B681" transform="translate(262.3125,63.8125)"/>
<path d="M0 0 C1.42742271 -0.00788544 1.42742271 -0.00788544 2.88368225 -0.01593018 C6.02931121 -0.0291346 9.17443425 -0.02039107 12.32006836 -0.01025391 C14.50434974 -0.01227434 16.68863047 -0.01518552 18.87290955 -0.01895142 C23.45016911 -0.02337523 28.02725304 -0.0169411 32.60449219 -0.00292969 C38.478279 0.0141722 44.3516549 0.00431483 50.22542667 -0.01364708 C54.73521536 -0.02447464 59.24490621 -0.02104346 63.7546978 -0.0132637 C65.92089321 -0.01125938 68.08709744 -0.01372908 70.25328255 -0.02070236 C73.27716827 -0.02830093 76.30038314 -0.01673523 79.32421875 0 C80.6731723 -0.00910904 80.6731723 -0.00910904 82.04937744 -0.0184021 C82.87230789 -0.00994263 83.69523834 -0.00148315 84.54310608 0.00723267 C85.25783113 0.00836374 85.97255617 0.00949482 86.70893955 0.01066017 C89.21419966 0.51148522 90.08844328 1.34817094 91.59741211 3.38818359 C92.35967979 10.24859274 92.35967979 10.24859274 90.20556641 13.46899414 C86.18382345 16.42836149 82.24946073 16.06189527 77.37084961 16.13037109 C75.84492691 16.17313675 75.84492691 16.17313675 74.28817749 16.21676636 C71.05786831 16.29843712 67.8284887 16.34812238 64.59741211 16.38818359 C63.58521606 16.40272583 62.57302002 16.41726807 61.53015137 16.43225098 C54.42728076 16.5242638 47.32575902 16.53353483 40.22241211 16.51318359 C39.1583313 16.51063568 38.09425049 16.50808777 36.9979248 16.50546265 C30.76544675 16.48797015 24.53322557 16.45491285 18.30090332 16.40777588 C15.86881562 16.39015046 13.43676195 16.37751024 11.00463867 16.36621094 C7.45083686 16.34036988 3.9003206 16.281444 0.34741211 16.20068359 C-0.61342285 16.19504395 -1.57425781 16.1894043 -2.56420898 16.18359375 C-6.98884248 16.03342336 -8.86751067 15.78865019 -12.50805664 13.06396484 C-14.40258789 10.38818359 -14.40258789 10.38818359 -14.46508789 6.76318359 C-13.40258789 3.38818359 -13.40258789 3.38818359 -11.92384338 1.70150757 C-8.03798374 -0.32263979 -4.31923253 -0.02923215 0 0 Z " fill="#020201" transform="translate(420.402587890625,168.61181640625)"/>
<path d="M0 0 C0.268125 1.11375 0.53625 2.2275 0.8125 3.375 C1.65809019 7.21840951 1.65809019 7.21840951 5 9 C7.38822803 9.27115332 9.78986587 9.42854574 12.19140625 9.52734375 C13.27720222 9.57711113 13.27720222 9.57711113 14.38493347 9.62788391 C15.95344617 9.69973014 17.52212963 9.76792043 19.09094238 9.83288574 C23.31846353 10.01182512 27.54389283 10.23081183 31.76953125 10.44921875 C32.63335419 10.49362091 33.49717712 10.53802307 34.38717651 10.58377075 C61.3321153 11.99799651 87.88135445 15.42394944 114.52416992 19.61328125 C116.91430823 19.98661515 119.30547518 20.35226051 121.69726562 20.71484375 C154.24330179 25.65889796 186.37151015 32.85450716 218 42 C218 43.98 218 45.96 218 48 C215.79014951 47.59145621 213.58221283 47.17256213 211.375 46.75 C210.14523437 46.51796875 208.91546875 46.2859375 207.6484375 46.046875 C203.87672923 45.25726854 200.20911542 44.21246683 196.51171875 43.12890625 C188.55207212 40.82033301 180.528364 38.96552639 172.4375 37.1875 C171.6690979 37.01769623 170.9006958 36.84789246 170.10900879 36.67294312 C141.59929955 30.38952925 112.89885666 25.14351346 84 21 C83.20223145 20.88528351 82.40446289 20.77056702 81.58251953 20.65237427 C67.21020604 18.60076249 52.81635671 16.92004307 38.375 15.4375 C37.33128235 15.32950073 36.2875647 15.22150146 35.21221924 15.11022949 C11.50152878 12.66390637 -12.17808059 10.92370708 -36 10 C-36 9.67 -36 9.34 -36 9 C-35.32453125 8.97421875 -34.6490625 8.9484375 -33.953125 8.921875 C-28.32628228 8.64673589 -28.32628228 8.64673589 -23.4375 6.125 C-21.83990723 3.9691049 -21.83990723 3.9691049 -21 1 C-17.68752012 0.83293193 -14.37501287 0.66641273 -11.0625 0.5 C-10.11697266 0.45230469 -9.17144531 0.40460938 -8.19726562 0.35546875 C-7.29814453 0.31035156 -6.39902344 0.26523437 -5.47265625 0.21875 C-4.64000244 0.17685547 -3.80734863 0.13496094 -2.94946289 0.09179688 C-1.96692123 0.04553067 -0.98363035 0 0 0 Z " fill="#E1384F" transform="translate(287,367)"/>
<path d="M0 0 C5.15001548 2.38928593 9.58348032 5.77775191 14.00390625 9.3046875 C9.22734748 13.1683253 3.67549985 15.52770223 -1.86401367 18.08520508 C-3.14633848 18.68330133 -4.42327025 19.29311872 -5.6940918 19.9152832 C-15.37691058 24.65115606 -23.04488894 26.15379884 -33.99609375 25.3046875 C-35.06029541 25.24531006 -36.12449707 25.18593262 -37.22094727 25.12475586 C-40.11159828 24.94536195 -42.9877387 24.70063391 -45.87109375 24.4296875 C-47.33095703 24.31173828 -47.33095703 24.31173828 -48.8203125 24.19140625 C-49.74199219 24.10761719 -50.66367187 24.02382813 -51.61328125 23.9375 C-52.84473877 23.82752686 -52.84473877 23.82752686 -54.10107422 23.71533203 C-54.72643066 23.57981934 -55.35178711 23.44430664 -55.99609375 23.3046875 C-56.32609375 22.6446875 -56.65609375 21.9846875 -56.99609375 21.3046875 C-51.74977441 18.81303996 -46.50276191 16.32285993 -41.25512695 13.83398438 C-39.47336432 12.98867553 -37.69178534 12.14297948 -35.91040039 11.296875 C-33.33659328 10.07447879 -30.76210921 8.85351826 -28.1875 7.6328125 C-27.40274796 7.25972961 -26.61799591 6.88664673 -25.8094635 6.5022583 C-23.54208388 5.42817709 -21.2704264 4.36395984 -18.99609375 3.3046875 C-17.79277908 2.739776 -17.79277908 2.739776 -16.56515503 2.16345215 C-15.77658112 1.80110474 -14.9880072 1.43875732 -14.17553711 1.06542969 C-13.47029404 0.73903503 -12.76505096 0.41264038 -12.03843689 0.07635498 C-7.91819249 -1.48041506 -4.2233679 -1.4711536 0 0 Z " fill="#D0D5ED" transform="translate(373.99609375,28.6953125)"/>
<path d="M0 0 C2.33607778 1.72144176 4.47758596 3.61315765 6.625 5.5625 C7.83394655 6.62726481 9.04494507 7.68970359 10.2578125 8.75 C10.87172852 9.28753906 11.48564453 9.82507813 12.11816406 10.37890625 C15.18314217 13.01920914 18.32835316 15.55200316 21.5 18.0625 C22.06283691 18.5150415 22.62567383 18.96758301 23.20556641 19.43383789 C26.62379873 22.12308505 30.0501541 24.18568825 34 26 C34 29.3 34 32.6 34 36 C30.49733122 36 29.92436598 35.44237626 27.26171875 33.32421875 C26.53130371 32.74913574 25.80088867 32.17405273 25.04833984 31.58154297 C24.2692627 30.95650879 23.49018555 30.33147461 22.6875 29.6875 C21.88006348 29.0495752 21.07262695 28.41165039 20.24072266 27.75439453 C17.82219413 25.84241416 15.4107491 23.921774 13 22 C10.62820216 20.12092021 8.25246116 18.24690708 5.875 16.375 C5.3277124 15.9428418 4.7804248 15.51068359 4.21655273 15.06542969 C-1.06728467 10.90972349 -6.44784902 6.88510318 -11.84814453 2.88232422 C-12.49122559 2.40424316 -13.13430664 1.92616211 -13.796875 1.43359375 C-14.36760742 1.01134521 -14.93833984 0.58909668 -15.52636719 0.15405273 C-17 -1 -17 -1 -19 -3 C-11.66218266 -5.34810155 -6.34046943 -3.7659684 0 0 Z " fill="#BCC4EA" transform="translate(471,32)"/>
<path d="M0 0 C16.30364634 -1.2985205 32.27307479 7.61388123 44.55859375 17.75 C45.27208984 18.36875 45.27208984 18.36875 46 19 C43.30491268 21.69508732 41.27684398 22.01150276 37.5390625 22.34375 C33.32160052 21.77277053 30.97230036 19.1553134 27.8671875 16.3984375 C19.77208596 9.6267858 9.98241287 4.35878833 0 1 C0 0.67 0 0.34 0 0 Z " fill="#09A36A" transform="translate(105,37)"/>
<path d="M0 0 C5.99244369 0.49001391 11.4614373 1.50194709 17.1875 3.3125 C18.41376099 3.68858398 18.41376099 3.68858398 19.66479492 4.07226562 C24.97691066 5.71210285 30.27233969 7.40429596 35.56808472 9.09606934 C39.64883288 10.39965403 43.7304072 11.70063242 47.8125 13 C48.63872864 13.26315002 49.46495728 13.52630005 50.31622314 13.79742432 C72.41408626 20.8211677 72.41408626 20.8211677 95 26 C95 26.33 95 26.66 95 27 C86.09871328 26.52722104 77.64491331 25.13920111 69 23 C68.28279785 22.82404297 67.5655957 22.64808594 66.82666016 22.46679688 C49.64637927 18.1762717 32.88526247 12.50642965 16.07545471 6.97621155 C10.74301419 5.22785978 5.39143986 3.55833154 0 2 C0 1.34 0 0.68 0 0 Z " fill="#4D6BC0" transform="translate(146,254)"/>
<path d="M0 0 C2 2 2 2 2.375 5.875 C2.28707416 8.89745069 2.07715786 9.8812956 0.375 12.5 C-2.76313998 14.48198314 -4.34873465 14.67064058 -8 14 C-11.36344489 11.51397551 -12.80057749 10.08574477 -13.5625 5.9375 C-12.87380287 2.34097053 -11.90567935 1.17925951 -9 -1 C-5.49243283 -2.58406259 -3.35193104 -1.67596552 0 0 Z " fill="#030303" transform="translate(510,314)"/>
<path d="M0 0 C2.875 2.0625 2.875 2.0625 5 5 C5 8.54361243 4.65850044 10.86591591 2.875 13.9375 C-0.18452459 15.6712306 -2.56817525 15.42145216 -6 15 C-8.4375 13.4375 -8.4375 13.4375 -10 11 C-10.5625 7.5 -10.5625 7.5 -10 4 C-6.99746894 0.65432253 -4.50513222 -1.01365475 0 0 Z " fill="#050607" transform="translate(406,310)"/>
<path d="M0 0 C2.4375 1.625 2.4375 1.625 4 4 C4.5625 6.9375 4.5625 6.9375 4 10 C1.9375 12.9375 1.9375 12.9375 -1 15 C-4.85210127 15.06641554 -6.99848005 14.87229157 -9.9375 12.3125 C-11.33817538 9.26397123 -11.4842732 7.32073048 -11 4 C-8.05899778 -0.47032338 -5.13105401 -0.73300772 0 0 Z " fill="#050506" transform="translate(102,335)"/>
<path d="M0 0 C2 1.625 2 1.625 3 4 C2.93416738 7.75245951 2.81598805 10.06312483 0.3125 12.9375 C-2.73602877 14.33817538 -4.67926952 14.4842732 -8 14 C-10.375 12.4375 -10.375 12.4375 -12 10 C-12.5625 6.5 -12.5625 6.5 -12 3 C-8.33340589 -1.4443565 -5.38867153 -1.59664341 0 0 Z " fill="#040505" transform="translate(372,331)"/>
<path d="M0 0 C2.4375 1 2.4375 1 4 3 C4.45314453 6.17201171 4.70191508 7.99265696 4 11 C1.61542223 13.72523173 -0.00533395 14.75133349 -3.5 15.625 C-7.50308378 14.62422905 -8.85580635 12.40548404 -11 9 C-11 5.73344791 -10.54466247 3.90777078 -8.875 1.125 C-5.86703161 -0.67978104 -3.42137208 -0.36014443 0 0 Z " fill="#050606" transform="translate(71,311)"/>
<path d="M0 0 C1.9375 1.125 1.9375 1.125 3 3 C3.5 6.4375 3.5 6.4375 3 10 C0.9375 12.5 0.9375 12.5 -2 14 C-5.80284671 14 -8.01930006 13.7968187 -11 11.375 C-12.46981805 7.88418213 -11.98413921 5.60851044 -11 2 C-7.79952331 -1.93904824 -4.62362797 -1.17692348 0 0 Z " fill="#040405" transform="translate(203,326)"/>
<path d="M0 0 C8.11638424 0.23440821 14.27275376 5.50618651 20.375 10.375 C17.20067581 13.06096662 14.54241989 14.8478562 10.375 15.375 C7.21760252 13.67558182 4.66457091 11.38028577 2 9 C1.26394531 8.3709375 0.52789062 7.741875 -0.23046875 7.09375 C-2.04514236 5.53831548 -3.84139481 3.96585156 -5.625 2.375 C-3.625 0.375 -3.625 0.375 0 0 Z " fill="#B7BFE4" transform="translate(367.625,27.625)"/>
<path d="M0 0 C2 1.0625 2 1.0625 3 3 C3.3898913 6.57400356 3.37020241 9.09763163 2 12.4375 C-0.59006025 14.46098457 -2.81736393 14.62026024 -6.05859375 14.453125 C-8 14 -8 14 -10.5 11.8125 C-12.12724578 8.76141417 -12.69317418 7.37922411 -12 4 C-8.80294102 -0.92879926 -5.39655285 -0.59961698 0 0 Z " fill="#040405" transform="translate(58,346)"/>
<path d="M0 0 C8.38836188 0.2082889 15.3268905 2.74073249 23 6 C17.8372093 9.44186047 17.8372093 9.44186047 14 10 C8.52359953 7.62948858 4.08951787 4.31566632 0 0 Z " fill="#09A068" transform="translate(30,39)"/>
</svg>
